<svg version="1.2" xmlns="http://www.w3.org/2000/svg" viewBox="0 0 837 472" width="837" height="472">
	<title>Logo in SVG</title>
	<style>
		.s0 { fill: none;stroke: #9b845e;stroke-width: 2 } 
		.s1 { fill: #f7cb7f } 
	</style>
	<g>
		<path class="s0" d="m299.6 33.4q-5.5 5.6-8.3 8.6c-3.7 4-5.9 7.6-9.3 12.6-2 2.8-3 5.9-4.2 8.1q-0.1 0.1-0.2 0.3 0 0.1-0.1 0.2-0.1 0.1-0.2 0.3-0.1 0.1-0.2 0.2-2.3 2.5-2.9 3.2c-4.9 5.6-1.1 14.5 5.6 16.3 9.2 2.5 15.7-8.6 10.1-15.8q-3.3-4.3-9-3.8-0.1 0-0.2 0-0.1 0-0.2-0.1-0.1-0.1-0.1-0.2 0-0.1 0-0.2 1.3-5.1 2.1-6.5 5.4-8.7 11.8-15.4c3.7-3.8 7.1-6.1 11.5-9.7q4.1-3.4 9.3-6.5c17.3-10.2 38.7-13.9 58-7.6 6.9 2.2 14.1 8.9 13.3 16.7-0.7 6.6-4.9 11.8-11.1 14.4q-11.5 4.9-19.3-6.9 0-0.1-0.1-0.2-0.1 0-0.2 0-0.1 0-0.1 0-0.1 0-0.2 0v0.1q0 0 0 0-0.1 0-0.1 0 0 0 0 0 0 0 0.1 0 2.8 6 8.3 8.5c13.9 6.3 31.7-10.3 23.6-24.4-5.3-9.3-18.1-14.2-28.3-15.3q-30.3-3-58.3 7.6-5 1.8-11.8 5.1-8.4 4.1-11.4 6-5.8 3.6-16 11.1-7.5 5.5-22.3 19.2-22.3 20.7-25.7 23.7-13 12.1-30.3 24.1-23.8 16.6-51.3 24-10.8 2.9-23.1 2.5c-7.7-0.3-14.7-2.5-20.4-7.5-7.4-6.5-9.4-17.3-3-25.1 4.1-5 10.5-8.2 17-6.4q2 0.6 3.5 3 0.1 0.1 0.1 0.1 0.1 0.1 0.2 0.1 0.1 0 0.2 0 0.1 0 0.2-0.1 0.1 0 0.2-0.1 0-0.1 0-0.2 0.1-0.1 0.1-0.2-0.1-0.1-0.1-0.2-2.4-4-6.7-4.9c-6.8-1.4-13.3 2-17.1 7.7-4.9 7-5.1 18.2 1.4 25.1 10.5 11.1 26.7 12 40.8 9.8 20.9-3.3 41.1-13 58.8-24.7q19-12.6 35.7-28 8.6-7.9 29.2-27.1 2.7-2.5 15.6-12.7 3.1-2.4 7.5-5.2 7.7-4.8 7.8-4.9 6.8-3.9 20-9.1 2.8-1.2 24.4-6.4 0 0 0.1 0 0 0 0 0.1 0.1 0 0.1 0 0 0 0 0.1l0.1 0.2q0 0.1 0 0.2 0 0.1 0 0.1 0 0.1-0.1 0.1 0 0.1-0.1 0.1-7 2.8-10.3 4.9-1.9 1.2-11.8 8.3-0.1 0.1-0.2 0.1-0.1 0.1-0.3 0.2-0.1 0-0.2 0.1-0.1 0.1-0.3 0.1-27.7 11.1-47.7 33.1-4 4.5-10.1 12.3c-5.2 6.6-10.6 11.8-16.5 17.4q-2.9 2.8-6.1 5.1-6.8 4.9-15.7 9.7-0.8 0.5-18.2 8.3-8.9 4-20.9 12.6-0.2 0.1-11.5 8.8-1.6 1.3-7.4 7.2-0.1 0-0.1 0.1-0.1 0.1-0.1 0.2 0 0.1 0.1 0.1 0 0.1 0.1 0.2 0 0.1 0.1 0.1 0.1 0 0.2 0 0.1 0 0.2 0 0 0 0.1-0.1 15.4-15.3 34.6-25.9c5.7-3.2 11.1-5.2 19.1-8.8q15.6-7 27.9-18.6 9.3-8.8 11.9-12.1 10.1-13.3 20.7-23.8 2.2-2.1 4-3.4c3.7-2.5 6.7-5.4 10.4-7.8q10.3-6.7 23.1-12.8 0.1 0 0.1 0 0.1 0.1 0.1 0.1 0.1 0.1 0.1 0.1 0 0.1-0.1 0.1z"/>
		<path class="s0" d="m546 34.7c0.6 0.2 2 1.2 3.2 1.7q10 4.2 14.3 7.1 9.2 6.2 17.8 14 4.7 4.3 8.1 8.3 5.4 6.4 15 17.8 5.2 6.1 10.8 10.7c9 7.3 18.2 13.7 28.4 17.6q20.4 8 36.4 20.7 5.6 4.5 11.8 10.1 1.2 1.1 3.2 3.8 0.1 0.1 0.1 0.1 0.1 0 0.2 0 0 0 0.1 0 0.1 0 0.1 0l0.3-0.3q0.1-0.1 0.1-0.1 0-0.1 0-0.2 0 0 0-0.1 0-0.1-0.1-0.1-12.2-13-26.9-22.2c-3.9-2.4-7.6-4.1-11.2-6.6q-0.2-0.1-0.3-0.2-0.2-0.1-0.4-0.2-0.2-0.1-0.3-0.2-0.2 0-0.4-0.1c-15.6-6.6-23.9-9.7-34.1-17.6q-0.2-0.1-8.3-6.7-3.9-3.2-7.8-7.8-4.8-5.6-13.7-16.4-10.8-13.2-25.8-23.7-7.8-5.4-19.9-10.2 0 0 0 0 0 0 0 0-0.1 0-0.1 0 0 0 0 0l-4.3-2.4q0 0 0-0.1-6.5-4.6-12.3-8.4c-3.5-2.3-7.1-3.6-11-5.4q-0.1-0.1-0.2-0.2 0-0.1 0-0.2 0.1-0.1 0.2-0.2 0.1-0.1 0.2-0.1 16.1 3 30.9 8.7c3.1 1.2 6.5 3.4 8.8 4.4q3.7 1.6 6.4 3.5 0.2 0.2 10.8 6.9 2.7 1.8 14.4 11.5 6.3 5.2 13.8 12.4 14 13.2 30.9 27.8 3.7 3.2 7.4 5.9c5.9 4.4 12.8 9.7 19.2 13.7q14.2 9 31.9 16.3c5.2 2.2 10.7 3.5 16.3 5.1q4.8 1.4 15 2.3 8.1 0.7 17.8-1.6c12.1-2.9 22.4-13.2 20-26.6-1.7-8.8-9.8-16.3-19.1-15.2q-5.5 0.6-7.8 5.5-0.1 0.1-0.1 0.2 0 0.1 0.1 0.2 0.1 0 0.2 0 0.1 0 0.2 0c1.6-1.4 2.8-3.2 5.3-3.5 10.6-1.8 19.2 8 19.2 17.8 0 7.9-6.2 15.3-13.3 18.3q-5.4 2.3-7.8 2.5-15.7 1.7-29.1-1.9-16.9-4.7-36.1-15-5.4-2.9-21.5-14-2.8-1.9-4.3-3.3c-3.2-3.1-7.2-5.4-10.4-8.3q-20.7-18.4-23.2-20.8-13.8-13.6-30-27.1-4.5-3.6-9.4-6.9-8.1-5.4-9.7-6.4c-23.5-13.9-50-21-77.1-19.4q-4.7 0.3-9 1.3c-8.1 1.9-13.8 3.8-20 9.2-4.4 3.7-6.4 7.9-6.1 13.6q0.4 7.5 5.7 12.1 8 7 18.5 4.4 6-1.5 9.3-8.8 0 0 0-0.1 0-0.1 0-0.1-0.1-0.1-0.1-0.1-0.1-0.1-0.2-0.1h-0.3q0 0 0 0-0.1 0-0.1 0 0 0 0 0 0 0 0 0-4.4 9.7-14.9 8.3-6-0.8-10.9-6-5.9-6.2-3.7-14.2c2.1-7.9 11.2-12.3 18.3-13.8 19.2-3.9 39.7 1.1 56.1 11.5q4 2.6 9.1 6.3c5.1 3.8 8.4 7.9 13.1 13.4 4.3 5 6.8 9.8 9 15.9q0 0.1 0 0.2 0 0.1-0.1 0.2-0.1 0.1-0.2 0.2-0.1 0-0.2 0c-5.6 0.1-10.2 3.3-10.9 9q-0.6 5.1 3.5 8.8c8.9 8.1 21-4.7 14.2-14-1-1.2-2.5-2-3.3-2.9q-0.1-0.1-0.2-0.2-0.1-0.1-0.2-0.2-0.1-0.2-0.2-0.3-0.1-0.1-0.1-0.3c-0.6-1.3-1-3.6-2-5.4q-4.6-8.1-8.8-13.3-2.1-2.6-8.5-9.4-0.1 0-0.1-0.1 0-0.1 0.1-0.2 0-0.1 0.1-0.1 0.1 0 0.2 0z"/>
		<path class="s0" d="m226.8 45c0-1.2-0.3-2.4-0.7-3.5-0.5-1.1-1.2-2.1-2-3-0.9-0.8-1.9-1.5-3-2-1.1-0.5-2.3-0.7-3.5-0.7-1.3 0-2.4 0.2-3.6 0.7-1.1 0.5-2.1 1.2-3 2-0.8 0.9-1.5 1.9-2 3-0.4 1.1-0.7 2.3-0.7 3.5 0 1.2 0.3 2.4 0.7 3.6 0.5 1.1 1.2 2.1 2 2.9 0.9 0.9 1.9 1.6 3 2 1.2 0.5 2.3 0.8 3.6 0.8 1.2-0.1 2.4-0.3 3.5-0.8 1.1-0.4 2.1-1.1 3-2 0.8-0.8 1.5-1.8 2-2.9 0.4-1.2 0.7-2.4 0.7-3.6z"/>
		<path class="s0" d="m634.7 45c0-1.2-0.3-2.4-0.7-3.5-0.5-1.1-1.2-2.1-2-3-0.9-0.9-1.9-1.5-3-2-1.1-0.5-2.3-0.7-3.5-0.7-1.2 0-2.4 0.2-3.5 0.7-1.2 0.5-2.2 1.1-3 2-0.9 0.9-1.5 1.9-2 3-0.5 1.1-0.7 2.3-0.7 3.5 0 1.2 0.2 2.4 0.7 3.5 0.5 1.1 1.1 2.1 2 3 0.8 0.9 1.8 1.5 3 2 1.1 0.5 2.3 0.7 3.5 0.7 1.2 0 2.4-0.2 3.5-0.7 1.1-0.5 2.1-1.1 3-2 0.8-0.9 1.5-1.9 2-3 0.4-1.1 0.7-2.3 0.7-3.5z"/>
		<path class="s0" d="m348.9 117.7q-0.1 0-0.2-0.1-0.1 0-0.2-0.1 0-0.1 0-0.2 0.1-0.1 0.1-0.2 14.1-12.8 30.4-26.8c4-3.4 7-5.4 10.6-8.7 4.8-4.5 12.8-10.7 19.3-16.7q3.6-3.3 12.3-10.4 0.1-0.1 0.3-0.2 0.1 0 0.3 0 0.1 0 0.2 0 0.2 0.1 0.3 0.2l72.4 62.2q0.2 0.1 0.2 0.3 0.1 0.2 0 0.4-0.1 0.2-0.2 0.3-0.2 0.1-0.4 0.1h-16.5q-0.2 0-0.3 0.1-0.2 0-0.3 0.1-0.1 0.1-0.1 0.3-0.1 0.1-0.1 0.2v12.3q0 0.2 0.1 0.3 0 0.1 0.1 0.2 0.2 0.1 0.3 0.2 0.1 0 0.3 0.1h45q0.1-0.1 0.2-0.1 0.1-0.1 0.1-0.2 0.1-0.1 0-0.2 0-0.1-0.1-0.2l-99.8-85.7q-0.3-0.3-0.7-0.4-0.3-0.1-0.7-0.1-0.4 0-0.7 0.1-0.4 0.1-0.7 0.4l-34.4 29.8q-0.2 0.1-0.3 0.1-0.2 0-0.4 0-0.1-0.1-0.2-0.3-0.1-0.1-0.1-0.3l0.7-15.4q0-0.5 0.1-0.9 0.2-0.4 0.4-0.8 0.2-0.4 0.6-0.7 0.3-0.4 0.7-0.6l2.3-1.3q0.2-0.1 0.2-0.2 0.1-0.2 0.1-0.3-0.1-0.2-0.2-0.3-0.1 0-0.3 0-7.4-0.5-14.3-0.4-2.8 0-3.7 0.4-0.4 0.2-0.6 0.5-0.1 0.4-0.1 0.8 0.1 0.4 0.4 0.6 0.3 0.3 0.7 0.3l2 0.1q0.3 0 0.5 0.1 0.3 0.1 0.4 0.3 0.2 0.1 0.3 0.4 0.1 0.2 0.2 0.4 1.2 9.9 0.4 21.5-0.1 1.5 0.5 1.9 0.2 0.2 0.3 0.5 0.1 0.3 0.1 0.7 0 0.3-0.2 0.7-0.2 0.3-0.5 0.5-4.6 3.5-10.1 8.3-18.3 16.1-38.4 32.6-2.9 2.4-7.7 6.8-0.1 0.1-0.1 0.2-0.1 0.1 0 0.2 0 0.1 0.1 0.1 0.1 0.1 0.2 0.1h46q0.2 0 0.3-0.1 0.1 0 0.2-0.1 0.1-0.1 0.2-0.3 0-0.1 0-0.2v-12.5q0-0.2 0-0.3-0.1-0.1-0.2-0.2-0.1-0.1-0.2-0.2-0.1 0-0.2 0z"/>
		<path class="s0" d="m409.8 81.9l24.3 0.2q0.1 0 0.1 0 0 0 0-0.1 0 0 0 0 0 0 0 0v-0.1c0.1-1.4-0.2-2.8-0.9-4.2-0.6-1.3-1.4-2.5-2.6-3.6-1.1-1-2.4-1.8-3.9-2.4-1.5-0.6-3.1-0.9-4.7-0.9h-0.1c-1.6 0-3.2 0.3-4.7 0.8-1.5 0.6-2.9 1.4-4 2.4-1.2 1-2.1 2.2-2.7 3.5-0.6 1.3-0.9 2.8-1 4.2q0 0.1 0 0.1 0.1 0 0.1 0 0 0 0 0.1 0 0 0 0z"/>
		<path class="s0" d="m421.6 88.2c8.4 0 14.4 5.5 14.6 14.1q0.2 8.8 0.1 32.1 0 0.2 0.1 0.3 0 0.1 0.1 0.3 0.1 0.1 0.3 0.1 0.1 0.1 0.2 0.1h14.4q0.2 0 0.4-0.1 0.2-0.1 0.3-0.2 0.2-0.2 0.3-0.4 0-0.2 0-0.4l0.1-48.3q-0.1-0.1-0.1-0.2 0-0.1-0.1-0.2-0.1-0.1-0.2-0.1-0.1 0-0.2-0.1c-10-0.1-20.1 0.2-30.3 0.2-10.3 0-20.3-0.3-30.3-0.2q-0.1 0-0.2 0.1-0.1 0-0.2 0.1-0.1 0.1-0.1 0.2-0.1 0.1-0.1 0.2v48.3q0 0.2 0.1 0.4 0.1 0.2 0.2 0.3 0.2 0.2 0.3 0.3 0.2 0.1 0.4 0.1h14.4q0.2 0 0.3-0.1 0.1-0.1 0.2-0.2 0.1-0.1 0.2-0.2 0-0.1 0.1-0.3-0.1-23.3 0.1-32.1c0.1-8.6 6.2-14.1 14.6-14.1z"/>
		<path class="s0" d="m414.5 131.3l14 0.1q0.2 0 0.3 0 0.2-0.1 0.3-0.2 0.1-0.1 0.1-0.2 0.1-0.2 0.1-0.3l0.1-27.6q0-1.6-0.5-3-0.6-1.5-1.7-2.6-1.1-1.2-2.5-1.8-1.4-0.6-3-0.6h-0.1q-1.5 0-2.9 0.6-1.5 0.6-2.5 1.7-1.1 1.1-1.7 2.6-0.6 1.4-0.6 3l-0.2 27.6q0 0.1 0.1 0.3 0 0.1 0.1 0.2 0.1 0.1 0.3 0.2 0.1 0 0.3 0z"/>
		<path class="s0" d="m554.9 138.1q0-0.1 0-0.2-0.1-0.2-0.2-0.2-0.1-0.1-0.2-0.2-0.1 0-0.2 0h-266q-0.2 0-0.3 0-0.1 0.1-0.2 0.2-0.1 0-0.2 0.2 0 0.1 0 0.2v3.4q0 0.1 0 0.2 0.1 0.2 0.2 0.2 0.1 0.1 0.2 0.2 0.1 0 0.2 0h266.1q0.1 0 0.2 0 0.1-0.1 0.2-0.2 0.1 0 0.2-0.2 0-0.1 0-0.2z"/>
		<path class="s0" d="m462.5 300.9q-14.3-20.7-19.8-27.3-10.2-12.1-19.6-24.4-2-2.7-3.3-4.7-0.1-0.1-0.1-0.3 0-0.1 0-0.2 0.1-0.2 0.2-0.3 0.1-0.1 0.2-0.1l3.6-1.5q0.1-0.1 0.3-0.2 0.1-0.1 0.2-0.3 0-0.1 0.1-0.3 0-0.2-0.1-0.3-0.2-0.7-0.7-1.2c-6.6-6.2-14.3-16.3-17.9-25.3-4.1-10.3-3.3-23.7 7.5-29.4 5.6-3 14.1-2.7 19.4 0.1 6.3 3.2 10.3 9.5 9.9 16.9q-0.2 3 0 4c0.7 4.7 5.7 6.4 9.4 3.7 10-7.1 2.4-22.2-5.1-27.3q-18.5-12.7-40-4.8c-19.7 7.2-25.6 28.6-16.1 46.7q4.1 7.7 8.9 14.5 0.1 0.1 0.1 0.3 0.1 0.2 0 0.3 0 0.2-0.2 0.3-0.1 0.2-0.3 0.2-6.8 2.6-12.3 5.3c-29.5 14.7-41.6 49.6-20.8 76.9 18.4 24.1 53 28.1 77.9 12q7.1-4.5 12.6-10.1 0.1-0.2 0.3-0.3 0.3 0 0.5 0 0.2 0 0.4 0.2 0.2 0.1 0.3 0.3 3.2 6.4 6.7 11.2c3.4 4.6 7.1 6.9 12.7 6.3 4.4-0.5 11.8-7.1 15.2-10q2.4-2-0.1-4.7-0.2-0.2-0.4-0.3-0.2-0.1-0.4-0.1-0.2-0.1-0.4 0-0.2 0-0.4 0.1c-3 1.7-6.3 4.7-10.1 2.9-1.9-1-2.8-2.7-4.4-4.6q-0.2-0.2-9.5-14.2-0.1-0.1-0.1-0.2-0.1-0.1-0.1-0.2 0-0.2 0-0.3 0.1-0.1 0.1-0.2c1.4-3.2 3.8-6.6 4.9-9.6q4.2-11 5.1-15.6c1.6-8.3 1.9-14.4 5.6-19.8 2.5-3.5 12.1-7.3 15.6-9.5 3.5-2 4.2-5.5 1.9-8.9-5.6-8.4-15.5 0.3-22.9 2.6q-6.3 2-14.3 2-6.6 0-8.5-0.4-0.3 0-0.6 0-0.3 0.1-0.5 0.3-0.2 0.2-0.3 0.4-0.2 0.3-0.2 0.6l-0.1 2q0 0.3 0.1 0.6 0.1 0.4 0.4 0.6 0.2 0.3 0.5 0.4 0.3 0.2 0.7 0.2 11.1 0.7 15.1 12.1c3.3 9.2 0.1 21.6-4.2 30.6q-0.9 1.8-1.8 2.4-0.1 0.1-0.2 0.1-0.1 0-0.2 0-0.1 0-0.2-0.1-0.1 0-0.2-0.1z"/>
		<path class="s0" d="m184.9 200.7q0.4-0.3 0.6 0.2 12.2 28.8 55.9 136.7 0.5 1.2 0.8 1.6 0.2 0.2 0.4 0.2 0.2 0.1 0.4 0.1 0.2 0 0.4-0.2 0.2-0.1 0.2-0.3l58.1-139.5q0.1-0.1 0.2-0.2 0.1-0.1 0.3-0.1 0.1-0.1 0.3 0 0.1 0.1 0.2 0.2 0.3 0.4 0.3 1.4-0.3 18.9-0.1 113.5c0 11.5-4.4 21.6-17.1 23.1q-2.2 0.2-4.3 0.3-0.1 0-0.3 0.1-0.2 0.1-0.3 0.2-0.1 0.1-0.2 0.3-0.1 0.2-0.1 0.4v1.4q0 0.2 0.1 0.3 0.1 0.2 0.2 0.4 0.2 0.1 0.3 0.2 0.2 0 0.4 0h64.3q0.3 0 0.5 0 0.2-0.1 0.4-0.3 0.1-0.2 0.2-0.4 0.1-0.2 0.1-0.4v-1.1q0-0.2-0.1-0.4 0-0.2-0.2-0.3-0.2-0.2-0.4-0.3-0.2 0-0.4 0-3.9 0.1-7.1-0.8c-12.7-3.2-14.5-14.2-14.5-25.7q0-66.4 0-103.3c0.1-14.3 5.5-25.4 21.8-24.8q0.2 0 0.3-0.1 0.2-0.1 0.3-0.2 0.2-0.1 0.2-0.3 0.1-0.2 0.1-0.3v-1.1q0-0.2-0.1-0.4 0-0.2-0.2-0.4-0.1-0.1-0.3-0.2-0.2-0.1-0.4-0.1h-41.7q-0.2 0-0.4 0.1-0.2 0-0.4 0.1-0.1 0.2-0.3 0.3-0.1 0.1-0.2 0.3c-7.8 17.8-14.1 33.7-21.8 51.9q-24 57.2-28.8 69-0.8 1.8-1.7 3-0.1 0.2-0.3 0.2-0.2 0.1-0.4 0.1-0.1-0.1-0.3-0.2-0.1-0.2-0.1-0.4l-0.6-3q0-0.1 0-0.1 0-0.1-0.1-0.1 0-0.1 0-0.1 0-0.1 0-0.1l-48.7-120.1q-0.1-0.2-0.2-0.4-0.2-0.1-0.3-0.3-0.2-0.1-0.4-0.1-0.2-0.1-0.4-0.1h-43.2q-0.3 0-0.5 0.1-0.2 0.1-0.4 0.3-0.2 0.2-0.3 0.4-0.1 0.2-0.1 0.5v0.7q0 0.3 0.1 0.5 0.1 0.2 0.3 0.4 0.1 0.1 0.3 0.2 0.3 0.1 0.5 0.1c19.9 0 22.1 13.1 22.1 29.2q0 48-0.1 95.5c0 12.8-1.3 23.7-14.9 28.8q-1.6 0.6-7.4 0.9-0.3 0-0.5 0.1-0.3 0.1-0.5 0.3-0.2 0.2-0.3 0.5-0.1 0.2-0.1 0.5v0.6q0 0.3 0.1 0.5 0.1 0.3 0.3 0.4 0.2 0.2 0.5 0.3 0.2 0.1 0.5 0.1h50.3q0.2 0 0.4 0 0.2-0.1 0.3-0.3 0.2-0.1 0.3-0.3 0-0.2 0-0.4v-1.3q0-0.2 0-0.4-0.1-0.2-0.2-0.3-0.2-0.1-0.4-0.2-0.2-0.1-0.4-0.1c-7.2-0.3-13.4-1.6-17.2-8.5-3.3-6.1-3.8-14.2-3.9-19.7q-0.4-53.1 0.1-108.5 0-0.1 0-0.1 0.1-0.1 0.1-0.1 0 0 0-0.1 0 0 0.1 0z"/>
		<path class="s0" d="m671.4 182.4v-1.2q0-0.3-0.1-0.4-0.1-0.2-0.2-0.4-0.2-0.1-0.4-0.2-0.2-0.1-0.4-0.1h-64.5q-0.2 0-0.4 0.1-0.2 0.1-0.3 0.2-0.1 0.1-0.2 0.3-0.1 0.2-0.1 0.4v1.3q0 0.2 0.1 0.4 0 0.1 0.2 0.2 0.1 0.2 0.2 0.2 0.2 0.1 0.4 0.1c6.2-0.1 15.1 2.1 18.1 8.1q3.6 7.2 3.6 15.6 0 21.9 0 48.2-0.1 0.1-0.1 0.3-0.1 0.1-0.2 0.3-0.1 0.1-0.3 0.1-0.1 0.1-0.3 0.1h-81.4q-0.1 0-0.1 0-0.1-0.1-0.2-0.1-0.1-0.1-0.1-0.2-0.1-0.1-0.1-0.2-0.4-1.7-0.4-4.8 0.1-18.8 0.1-45c0.1-10 2.8-19.3 13.8-21.6q3.4-0.8 7-1.1 0.2-0.1 0.4-0.1 0.2-0.1 0.3-0.3 0.1-0.1 0.2-0.3 0.1-0.2 0.1-0.4v-0.5q0-0.2-0.1-0.5-0.1-0.2-0.3-0.4-0.2-0.2-0.4-0.3-0.2 0-0.5-0.1h-63.3q-0.2 0.1-0.5 0.1-0.2 0.1-0.4 0.3-0.2 0.2-0.3 0.4 0 0.3 0 0.5v0.4q-0.1 0.3 0 0.5 0.1 0.2 0.3 0.4 0.1 0.1 0.3 0.2 0.3 0.1 0.5 0.2 3.6 0.3 6.1 0.8c12.9 2.3 15 13.7 14.9 25.1q-0.1 78.4 0 100.5c0 7.5-0.2 14.7-4.2 20.7q-3.9 5.8-10.9 6.9-5.2 0.7-6.5 0.7-0.2 0-0.4 0.1-0.2 0.1-0.4 0.2-0.1 0.2-0.2 0.4-0.1 0.2-0.1 0.4v1.1q0 0.2 0.1 0.4 0.1 0.2 0.2 0.3 0.2 0.2 0.4 0.3 0.2 0 0.4 0h64.3q0.2 0 0.4 0 0.2-0.1 0.4-0.3 0.1-0.1 0.2-0.3 0.1-0.2 0.1-0.4v-1q0-0.2-0.1-0.4-0.1-0.3-0.3-0.4-0.2-0.2-0.4-0.3-0.2-0.1-0.5-0.1c-14.6 0.3-20.6-8.8-20.6-22.3q-0.1-31.5 0-52.1 0-0.2 0.1-0.3 0-0.1 0.1-0.1 0.1-0.1 0.2-0.1 0.1-0.1 0.2-0.1h81.7q0.1 0 0.2 0.1 0.1 0 0.2 0.1 0.1 0.1 0.2 0.2 0 0.1 0 0.2 0.3 36.7 0.2 47.9-0.1 8.6-1.3 12.8c-2.8 9.9-10.3 13.9-20.4 13.6q-0.2 0-0.4 0.1-0.2 0-0.3 0.2-0.1 0.1-0.2 0.3-0.1 0.1-0.1 0.3v1.5q0 0.2 0.1 0.4 0.1 0.1 0.2 0.3 0.1 0.1 0.3 0.2 0.2 0.1 0.4 0.1h64.3q0.3 0 0.5-0.1 0.2-0.1 0.4-0.3 0.2-0.2 0.2-0.4 0.1-0.2 0.1-0.4v-1q0-0.2 0-0.5-0.1-0.2-0.3-0.3-0.1-0.2-0.3-0.3-0.2-0.1-0.4-0.1c-2.4-0.2-5.4-0.2-7.6-0.8-11.6-3.1-13.7-14.1-13.7-24.5q0-52.5 0-104.7c0.1-9.5 1.9-19.6 11.8-23.2 2.6-1 7.3-1.2 9.8-1.2q0.2 0 0.4-0.1 0.1-0.1 0.2-0.2 0.2-0.1 0.2-0.3 0.1-0.1 0.1-0.3z"/>
		<path class="s0" d="m132.3 225.7c0-1.4-0.3-2.9-0.9-4.2-0.5-1.3-1.3-2.5-2.3-3.6-1-1-2.3-1.8-3.6-2.3-1.3-0.6-2.7-0.9-4.2-0.9-1.4 0-2.8 0.3-4.2 0.9-1.3 0.5-2.5 1.3-3.5 2.3-1 1.1-1.8 2.3-2.4 3.6-0.5 1.3-0.8 2.8-0.8 4.2 0 1.4 0.3 2.9 0.8 4.2 0.6 1.3 1.4 2.5 2.4 3.5 1 1 2.2 1.9 3.5 2.4 1.4 0.6 2.8 0.8 4.2 0.8 1.5 0 2.9-0.2 4.2-0.8 1.3-0.5 2.6-1.4 3.6-2.4 1-1 1.8-2.2 2.3-3.5 0.6-1.3 0.9-2.8 0.9-4.2z"/>
		<path class="s0" d="m729 225.7c0-1.4-0.3-2.8-0.8-4.1-0.6-1.3-1.4-2.5-2.4-3.6-1-1-2.2-1.8-3.5-2.3-1.3-0.6-2.8-0.8-4.2-0.8-1.4 0-2.8 0.2-4.2 0.8-1.3 0.5-2.5 1.3-3.5 2.3-1 1.1-1.8 2.3-2.4 3.6-0.5 1.3-0.8 2.7-0.8 4.1 0 1.5 0.3 2.9 0.8 4.2 0.6 1.3 1.4 2.5 2.4 3.5 1 1.1 2.2 1.9 3.5 2.4 1.4 0.5 2.8 0.8 4.2 0.8 1.4 0 2.9-0.3 4.2-0.8 1.3-0.5 2.5-1.3 3.5-2.4 1-1 1.8-2.2 2.4-3.5 0.5-1.3 0.8-2.7 0.8-4.2z"/>
		<path class="s0" d="m706.8 297.5c10.5 21.4 28.9 39.6 51.9 47q21.3 6.8 41.2-0.4 9.4-3.4 15.4-8.5c11.5-9.5 18.6-23.7 16.3-38.7-2.5-16.7-15.2-29.2-31.3-33.6-6.4-1.8-13.1-1.6-19.3 0.2-8.5 2.4-16.4 10.1-16.8 19.4-0.3 6.6 2.7 14 8.9 16.7 4.6 2.1 9.9 0.4 11.2-5q0.7-2.8-1.3-5.7c-2.3-3.5-5.6-3.7-9.5-3.8q-1.9-0.1-2.9-1.3c-6.7-8.2 5.2-14.8 11.7-16.2q8.9-1.9 17.1 0.9 20.9 7.2 26.7 28.6c3.5 13-3.4 27-13.2 34.8q-8 6.2-11.1 7.4c-21.1 8.6-44.9 5.3-63.3-7.3q-10.3-7-15.7-12.8-8.3-9.1-15.3-22.1-0.1-0.1-0.1-0.1-0.1 0-0.1-0.1-0.1 0-0.1 0-0.1 0-0.2 0.1-0.1 0-0.1 0.1-0.1 0-0.1 0.1 0 0 0 0.1 0 0.1 0 0.2z"/>
		<path class="s0" d="m131.6 297.1q-0.1 0-0.2 0 0 0-0.1 0-0.1 0-0.1 0.1 0 0-0.1 0.1-6.4 12.3-15.8 22.6c-4.5 4.9-10.5 9.3-15.7 12.7-20.3 13.2-48.8 16.4-69.6 2.6-11.9-7.9-20.6-22.3-17.2-37.2q4.5-19.6 23.1-28.1c9.9-4.5 24.9-4.7 32.3 4.3 2.9 3.6 3.2 7.8-0.9 10.7q-0.1 0-0.2 0.1-0.1 0.1-0.2 0.1-0.2 0.1-0.3 0.1-0.1 0-0.3 0c-4.3 0.3-7.8 0.6-10.2 4.1q-1.9 2.5-1.2 5.5c1.2 5.5 8.5 7.4 12.6 4.3q10.8-8.2 5.8-22.1c-4.1-11.5-17.2-15.8-28.8-14.6q-11 1.1-20.4 7.8c-23.4 16.8-22.3 49.8 0.6 66.4 15.2 11.1 34.3 13.6 52.7 8.8q18-4.8 32.2-17.9 4.2-3.8 9.2-9.7 8.1-9.7 12.9-20.2 0.1-0.1 0.1-0.1 0-0.1-0.1-0.2 0 0 0-0.1-0.1 0-0.1-0.1z"/>
		<path class="s0" d="m91.3 383.5q0 0 0 0.1 0.1 0 0.1 0 0 0 0 0.1 0.1 0 0.1 0 43.9 4.4 88.8 3.7c31.4-0.5 61.3-3.9 95.5-7.8 30.4-3.5 62.4-7.1 93.5-3.1q7 0.9 11.9 2.4c3.2 1.1 10.3 4.3 5.7 8.5q-2 1.8-6.2 3.1-10.9 3.4-23.4 4.1-30 1.7-59-6.2-0.1 0-0.2 0 0 0-0.1 0 0 0.1-0.1 0.1 0 0.1 0 0.1-0.1 0.1-0.1 0.2 0 0 0.1 0.1 0 0.1 0 0.1 0.1 0 0.1 0.1 18.6 7.7 35.7 9.9c20.2 2.7 44.6 1.9 63.9-4.3q5.7-1.8 8.9-4.2c11.4-8.3-2.2-15.1-9.2-17.2-7.1-2.2-18.8-4.6-27-5.3q-35.8-2.9-71 1.5c-16.9 2.2-25.5 3.2-39.5 5.4q-32.8 5-67.7 7.5-17.1 1.3-29.7 1.5c-18.7 0.2-43.2 0.5-63.9-0.8q-1.6-0.1-7.2 0.1 0 0 0 0 0 0 0 0 0 0 0 0 0 0 0 0z"/>
		<path class="s0" d="m748.3 383.5v-0.2q0 0 0 0 0 0 0 0 0 0 0 0 0 0 0 0-5.5-0.3-7.1-0.2c-20.7 1.4-45.3 1-64.1 0.8q-12.5-0.2-29.6-1.4-35-2.5-67.8-7.6c-14.1-2.2-22.7-3.2-39.6-5.4q-35.3-4.5-71.1-1.5c-8.2 0.7-19.9 3-27.1 5.2-6.9 2.2-20.5 9-9.2 17.3q3.3 2.4 9 4.2c19.3 6.2 43.8 7 64 4.3q17.1-2.2 35.7-9.9 0 0 0.1-0.1 0 0 0-0.1 0.1-0.1 0.1-0.1 0-0.1-0.1-0.2 0 0 0-0.1-0.1 0-0.1-0.1-0.1 0-0.1 0-0.1 0-0.2 0-29 7.9-59 6.2-12.6-0.7-23.5-4.1-4.2-1.3-6.2-3.2c-4.6-4.2 2.4-7.4 5.7-8.4q4.9-1.6 11.9-2.5c31.2-3.9 63.2-0.3 93.6 3.2 34.3 3.9 64.2 7.3 95.6 7.8q45 0.7 88.9-3.7 0.1 0 0.1 0 0 0 0.1 0 0-0.1 0-0.1 0 0 0-0.1z"/>
		<path class="s0" d="m148.3 441.5c0-2.2-0.6-4.3-1.5-6.3-1-2-2.4-3.8-4-5.3-1.7-1.4-3.7-2.6-5.8-3.3-2.2-0.8-4.5-1.1-6.8-1-2.3 0.1-4.5 0.6-6.6 1.5-2.1 0.9-4 2.2-5.5 3.8-1.6 1.6-2.8 3.5-3.6 5.6-0.8 2-1.2 4.2-1.1 6.4 0.1 2.2 0.7 4.3 1.6 6.3 1 2 2.3 3.8 4 5.3 1.7 1.4 3.7 2.6 5.8 3.3 2.2 0.8 4.5 1.1 6.8 1 2.3-0.1 4.5-0.6 6.6-1.5 2.1-0.9 3.9-2.2 5.5-3.8 1.6-1.6 2.8-3.5 3.6-5.6 0.8-2 1.1-4.2 1-6.4z"/>
		<path class="s0" d="m217.1 434.2l0.2-5.9q0-0.2 0-0.4-0.1-0.2-0.2-0.4-0.1-0.1-0.3-0.3-0.1-0.1-0.3-0.1c-5.4-1.7-11.2-2.4-15.9 1-2.6 1.8-3.4 4.6-3.2 7.6 0.3 4.3 5.1 7.1 8.9 8.7 2.4 1 5.5 2.5 6.5 4.3 2.6 4.5-1.2 8.6-6 8.1q-7.2-0.8-8.4-7.6 0-0.2-0.2-0.3-0.1-0.2-0.4-0.2-0.2 0-0.4 0.1-0.1 0.1-0.2 0.3-0.9 3-0.1 7.2 0 0.1 0.1 0.3 0 0.1 0.1 0.2 0.1 0.1 0.2 0.2 0.1 0.1 0.3 0.1c5.9 2.5 14.2 3.1 18.7-2.1 4.2-4.7 1.6-11.2-3.7-13.6q-2.9-1.2-6.9-3.3c-3.1-1.6-4.9-3.8-3.3-7.1q1.9-4.2 7.1-3.1c3.5 0.7 4.7 3.6 6 6.6q0.1 0.2 0.3 0.3 0.2 0.1 0.5 0.1 0.2-0.1 0.4-0.3 0.1-0.1 0.2-0.4z"/>
		<path class="s0" d="m358.5 427.2c-7.8-1.4-15-2.8-21.2 1.7-6.8 4.8-9.3 14.3-5 21.8 5 8.5 17 10.7 25.1 5.7 1.9-1.2 3.2-3 2.8-5.2q0-0.3-0.2-0.4-0.1-0.2-0.3-0.2-0.3-0.1-0.5 0-0.2 0.1-0.3 0.3c-5 8.1-17.2 7.4-21.3-1.5-2.7-5.9-2.2-15.9 3.6-19.6q4.7-3.1 10.8-1.3 4.5 1.3 5.4 6.4 0.1 0.3 0.4 0.5 0.2 0.2 0.6 0.2 0.3 0 0.6-0.2 0.2-0.2 0.2-0.6 0.4-3.4 0-6.9-0.1-0.2-0.1-0.3-0.1-0.1-0.2-0.2-0.1-0.1-0.2-0.1-0.1-0.1-0.2-0.1z"/>
		<path class="s0" d="m452.3 440.7c-0.2-2.2-0.9-4.3-1.9-6.3-1.1-1.9-2.5-3.6-4.3-5-1.7-1.4-3.7-2.5-5.9-3.1-2.2-0.6-4.5-0.9-6.8-0.7-2.3 0.2-4.5 0.9-6.5 1.9-2.1 1-3.9 2.4-5.3 4.1-1.5 1.7-2.6 3.6-3.3 5.7-0.7 2.1-1 4.3-0.8 6.5 0.2 2.2 0.9 4.3 1.9 6.2 1.1 2 2.5 3.7 4.3 5.1 1.7 1.4 3.7 2.4 5.9 3.1 2.2 0.6 4.5 0.8 6.8 0.6 2.3-0.2 4.5-0.8 6.5-1.8 2-1 3.8-2.4 5.3-4.1 1.5-1.7 2.6-3.7 3.3-5.7 0.7-2.1 1-4.3 0.8-6.5z"/>
		<path class="s0" d="m523.1 441q-2.5 0.3-4.7 2.5c-5.5 5.4-2.7 13.5 4.6 15 5.4 1.2 9-0.9 13.5-3.5q0.2-0.1 0.3-0.1 0.1 0 0.2 0 0.2 0 0.3 0 0.1 0.1 0.2 0.2 0.6 0.6 1.1 1c2.7 2.8 6.7 2.9 10.1 1.4q0.2-0.1 0.3-0.2 0.1-0.2 0-0.3 0-0.2-0.1-0.3-0.1-0.1-0.3-0.1-4.6-0.4-7.2-5 0-0.1-0.1-0.2 0-0.2 0-0.3 0-0.2 0-0.3 0.1-0.1 0.1-0.3l3.8-6.5q0.1-0.2 0.2-0.3 0.1-0.1 0.2-0.1 0.1-0.1 0.3-0.1 0.1-0.1 0.2-0.1h1q0.2 0 0.4 0 0.2-0.1 0.3-0.2 0.2-0.1 0.3-0.2 0.1-0.2 0.2-0.4l0.7-1.6q0.1-0.2 0.1-0.4-0.1-0.2-0.1-0.3-0.1-0.2-0.3-0.3-0.2-0.1-0.3-0.1-4.2-0.4-8.5 0.4-0.4 0-0.6 0.3-0.3 0.3-0.3 0.7 0 0.4 0.2 0.6 0.3 0.3 0.7 0.4 0.6 0.1 1.1 0.6 0.1 0.1 0.2 0.3 0 0.1 0.1 0.2 0 0.1 0 0.2 0 0.2 0 0.3-0.3 3.2-1.6 5.3-0.1 0.1-0.3 0.2-0.1 0.1-0.3 0.2-0.2 0-0.3 0-0.2 0-0.4-0.1c-3.5-1.7-5.9-5-8.7-7.7q-0.1-0.1-0.2-0.2 0-0.1 0-0.3 0-0.1 0.1-0.2 0-0.1 0.1-0.2 1.6-1.1 4.6-2.8c4.1-2.3 4.8-8.1 0.5-10.8q-3.1-2-7.8-1.3c-7.3 1.1-9.4 10.2-3.7 14.5q0 0 0.1 0.1 0 0.1 0 0.2 0 0-0.1 0.1-0.1 0.1-0.2 0.1z"/>
		<path class="s0" d="m641.5 449.6q-0.5 3.2 0.5 7.8 0 0.1 0 0.2 0.1 0.1 0.2 0.2 0.1 0.1 0.2 0.2 0.1 0 0.3 0 0.6 0 7.3 0.8c5.3 0.6 11.9-1.7 12.7-7.6 0.8-5.3-1.9-7.8-6.6-10.3q-0.9-0.5-7.5-4-0.4-0.2-0.8-0.5-0.3-0.4-0.6-0.8-0.2-0.4-0.4-0.8-0.1-0.5-0.2-1c-0.3-5.1 3.7-6.9 8.1-5.5q4.3 1.4 4.9 6.5 0.1 0.3 0.3 0.4 0.2 0.2 0.4 0.2 0.3 0 0.5-0.1 0.2-0.2 0.3-0.5 0.5-3 0.2-7.3 0-0.2-0.1-0.3 0-0.1-0.1-0.2-0.1-0.1-0.2-0.2-0.1 0-0.3 0c-6.6-1-10.4-2.1-15.1 0.9-4.5 2.9-4.5 9.8-0.6 13.3 3.4 3.1 12.6 4.3 13.1 9.6 0.5 4.2-3.6 6.9-7.5 6.3q-6.3-1.1-8-7.3-0.1-0.2-0.2-0.3-0.2-0.1-0.4-0.1-0.1 0-0.3 0.1-0.1 0.2-0.1 0.3z"/>
		<path class="s0" d="m721.5 444.3q0.1-0.1 0.2-0.2 0-0.2 0-0.3 0-0.2-0.2-0.3-0.1-0.1-0.3-0.1h-11.5q-0.2 0-0.4 0.1-0.1 0.2-0.2 0.4-0.1 0.2-0.1 0.4 0.1 0.2 0.3 0.4 0.8 0.7 3.1 1.1 0.2 0.1 0.4 0.2 0.2 0.1 0.3 0.2 0.1 0.2 0.2 0.4 0 0.2 0.1 0.4v6.7q-0.1 0.4-0.2 0.7-0.1 0.4-0.3 0.7-0.3 0.3-0.6 0.5-0.3 0.2-0.7 0.4-5.8 1.6-11.1-1.1c-10.3-5.3-8.7-26.3 4.7-27.2q5.7-0.4 9.4 3.6 0 0 0 0.1 0 0 0 0 0 0 0.1 0 0 0.1 0 0.1l2.2 3.9q0.2 0.3 0.4 0.4 0.2 0.1 0.5 0 0.2-0.1 0.4-0.3 0.1-0.2 0.2-0.4v-5.3q-0.1-0.4-0.2-0.7-0.1-0.3-0.3-0.6-0.2-0.3-0.4-0.5-0.3-0.2-0.6-0.4c-6.5-2.5-15.3-2.9-21.2 1-6.3 4.1-9.2 12.3-6.4 19.6q3.2 8.3 12.9 10.3c6 1.3 10.4-0.4 15.4-2q0.2-0.1 0.4-0.2 0.2-0.1 0.4-0.3 0.1-0.2 0.2-0.5 0.1-0.2 0.1-0.5 0.1-4.1 0.2-6.4c0-2.4 0.5-3 2.6-4.3z"/>
		<path class="s0" d="m107.7 451.1q0-0.2-0.1-0.3-0.1-0.2-0.3-0.3-0.2 0-0.4 0-0.2 0.1-0.3 0.2-6.4 7.8-14.5 5-6.1-2-8-7.2c-2.3-6.5-1.6-17.3 6.5-19.8q10.6-3.2 14.4 6.3 0.2 0.3 0.4 0.5 0.3 0.1 0.6 0.1 0.3-0.1 0.5-0.3 0.2-0.3 0.2-0.6v-6q0-0.1 0-0.3-0.1-0.2-0.2-0.3-0.1-0.2-0.2-0.3-0.2-0.1-0.4-0.2c-9-3.2-21.1-2.8-26.3 6.2-3.2 5.4-3.2 12.3 0.3 17.4q4.4 6.6 13.7 7.6 6.8 0.7 12.9-3.6 0.3-0.2 0.5-0.4 0.2-0.3 0.4-0.6 0.1-0.2 0.2-0.6 0.1-0.3 0.1-0.6z"/>
		<path class="s0" d="m225.7 433.9q0.7-0.6 1.4-2.1c1.4-3.4 5.1-3.5 8.6-3.1q0.3 0 0.5 0.1 0.3 0.1 0.5 0.3 0.2 0.2 0.3 0.5 0.1 0.3 0.1 0.5 0.1 9.8 0 21.9 0 2-0.6 2.9-0.1 0.1-0.2 0.2 0 0.1-0.1 0.2-0.1 0-0.2 0.1-0.1 0.1-0.2 0.1l-2.8 1.7q-0.2 0.1-0.3 0.2 0 0.2 0 0.4 0.1 0.2 0.2 0.3 0.1 0.1 0.3 0.1h12.5q0.2 0 0.4-0.2 0.2-0.1 0.2-0.4 0-0.2-0.1-0.4-0.2-0.2-0.4-0.2-1.9-0.4-3.2-1.6-0.2-0.1-0.2-0.2-0.1-0.1-0.2-0.3 0-0.1-0.1-0.2 0-0.2 0-0.3v-24.4q0-0.2 0.1-0.4 0-0.2 0.2-0.4 0.1-0.2 0.3-0.2 0.2-0.1 0.5-0.1c3.7-0.3 8.2 0 9.1 4.7q0.1 0.4 0.4 0.5 0.2 0.2 0.6 0.2 0.3 0 0.5-0.3 0.2-0.2 0.2-0.6v-6.3q0-0.2 0-0.3-0.1-0.2-0.2-0.3-0.1-0.1-0.2-0.1-0.2-0.1-0.3-0.1h-27.4q-0.2 0-0.3 0.1-0.2 0-0.3 0.2-0.1 0.1-0.2 0.2-0.1 0.2-0.1 0.4v6.4q0 0.1 0.1 0.2 0.1 0.1 0.2 0.1 0.1 0.1 0.2 0.1 0.1 0 0.2-0.1z"/>
		<path class="s0" d="m364.6 426.8l-0.3 6.7q0 0.2 0.1 0.3 0.1 0.2 0.3 0.3 0.1 0.1 0.3 0.1 0.2 0 0.3-0.1 0.6-0.3 0.8-0.8c1.6-4.7 5.6-4.8 9.8-4.5q0.2 0 0.4 0.1 0.1 0.1 0.3 0.2 0.1 0.2 0.2 0.4 0.1 0.2 0.1 0.4v24.2q0 0.4-0.2 0.8-0.1 0.3-0.3 0.6-0.3 0.3-0.6 0.5-0.4 0.2-0.7 0.3-1.2 0.2-2.4 0.9-0.1 0.1-0.2 0.3 0 0.2 0 0.3 0.1 0.2 0.2 0.3 0.1 0.1 0.3 0.1h12.3q0.2 0 0.4-0.1 0.2-0.2 0.2-0.4 0.1-0.2 0-0.4-0.1-0.2-0.3-0.3l-2.5-1q-0.3-0.1-0.5-0.3-0.3-0.2-0.5-0.5-0.2-0.3-0.3-0.6-0.1-0.4-0.1-0.7v-24.3q0-0.1 0.1-0.2 0-0.2 0.1-0.3 0.1-0.1 0.2-0.1 0.2-0.1 0.3-0.1 4-0.6 7.8 0.2 0.1 0 0.2 0.1 0.2 0 0.3 0.1 0.1 0.1 0.1 0.2 0.1 0.1 0.2 0.2l1.6 4.1q0.1 0.3 0.4 0.5 0.2 0.1 0.5 0 0.3 0 0.5-0.2 0.2-0.3 0.2-0.6v-6.9q0 0 0-0.1-0.1-0.1-0.1-0.2-0.1 0-0.2-0.1-0.1 0-0.2 0-14.5 0.7-28.3-0.1-0.2 0-0.3 0.1-0.1 0-0.2 0.1-0.1 0.1-0.2 0.2 0 0.1-0.1 0.3z"/>
		<path class="s0" d="m164.4 456.9c-4.3-1-3.5-3.5-3.4-7.5q0.1-10.5 0.1-15.6 0-0.1 0-0.2 0.1-0.1 0.2-0.2 0.1 0 0.2 0 0.2 0 0.2 0.1 7 8.5 15.9 17.8 1.6 1.5 2.9 3.3c1.5 1.9 2.9 4.2 4.7 4.2q0.1 0 0.3-0.1 0.1-0.1 0.2-0.2 0.2-0.1 0.2-0.2 0.1-0.2 0.1-0.3 0.2-15.7 0.3-22.7c0-3.3-0.4-6.4 3.3-7.4q0.3-0.1 0.4-0.4 0.2-0.2 0.1-0.5 0-0.3-0.2-0.5-0.3-0.2-0.5-0.2h-9.1q-0.1 0-0.2 0 0 0-0.1 0-0.1 0.1-0.1 0.1-0.1 0-0.2 0.1-0.2 0.1-0.3 0.2 0 0.1 0 0.3-0.1 0.1 0 0.3 0 0.1 0.1 0.2 0.1 0.1 0.3 0.2 1.9 1 2.1 1.1 0.3 0.2 0.6 0.5 0.3 0.3 0.6 0.7 0.2 0.3 0.3 0.8 0.1 0.4 0.1 0.8l0.1 17.9q0 0.2-0.1 0.3-0.1 0.2-0.3 0.3-0.1 0-0.3 0-0.2-0.1-0.3-0.2l-20.3-22.8q-0.1-0.1-0.2-0.2-0.1-0.1-0.2-0.2-0.2-0.1-0.3-0.2-0.1 0-0.3 0-2.8-0.7-6.5 0-0.2 0-0.3 0.1-0.2 0.2-0.2 0.3 0 0.2 0.1 0.4 0 0.2 0.2 0.3l2.5 1.4q0.1 0.1 0.2 0.1 0.1 0.1 0.1 0.2 0.1 0.1 0.2 0.1 0 0.1 0.1 0.2 0.9 1.9 0.9 4.4 0.1 13.3-0.2 19-0.1 0.3-0.1 0.6-0.1 0.3-0.2 0.5-0.2 0.3-0.4 0.6-0.1 0.2-0.4 0.4l-2.7 2.4q-0.1 0-0.1 0.2-0.1 0.1 0 0.2 0 0.1 0.1 0.2 0.1 0 0.3 0l9.3 0.1q0.3-0.1 0.4-0.2 0.2-0.2 0.2-0.4 0.1-0.2-0.1-0.4-0.1-0.2-0.3-0.3z"/>
		<path class="s0" d="m288.8 457.2q-0.1-0.2-0.6-0.4c-2.3-0.9-4.1-2.1-5.7-4.3q-3.4-4.8-5.8-8.3-0.1-0.1-0.1-0.3 0-0.1 0-0.2 0.1-0.1 0.1-0.2 0.1-0.1 0.2-0.2c3.2-1.5 7-4.8 6.4-8.8q-1.2-7.6-9-8-7.2-0.4-15 0.2-0.2 0-0.3 0.2-0.2 0.1-0.2 0.3 0 0.2 0.1 0.4 0.1 0.2 0.3 0.3l1.8 0.7q0.2 0.2 0.5 0.3 0.2 0.2 0.3 0.5 0.2 0.2 0.3 0.5 0.1 0.3 0.1 0.5 0.3 13.6 0.1 22.7 0 3.6-3.1 3.5-0.1 0-0.2 0.1-0.1 0-0.2 0.1-0.1 0.1-0.2 0.2 0 0.1 0 0.3v0.4q0 0.1 0 0.2 0.1 0 0.1 0.1 0.1 0.1 0.2 0.1 0.1 0 0.2 0h11.5q0.2 0 0.3-0.1 0.1-0.1 0.2-0.2 0.1-0.2 0-0.3 0-0.2-0.2-0.3-0.8-0.8-2.2-1.2-0.3-0.1-0.5-0.3-0.3-0.2-0.5-0.5-0.2-0.2-0.3-0.5 0-0.3 0-0.7v-10q0-0.1 0-0.2 0 0 0.1-0.1 0.1-0.1 0.2-0.1 0.1 0 0.2 0c2.5 0.4 3.7 1.2 5.3 3.5q4.8 7.1 4.8 7.2 3.4 5.3 10.2 3.8 0.2 0 0.3-0.1 0.1-0.1 0.2-0.2 0.1-0.2 0.1-0.3 0-0.2-0.1-0.3z"/>
		<path class="s0" d="m303.1 426.6l-10.6-0.4q-0.2 0-0.4 0.1-0.2 0.1-0.4 0.3-0.1 0.2-0.1 0.5 0 0.2 0.1 0.4 0.6 0.9 1.4 1.3 0.4 0.1 0.7 0.3 0.3 0.3 0.5 0.6 0.2 0.3 0.3 0.6 0.1 0.3 0.1 0.6 0.1 12.4 0.3 17.1c0.4 9.1 8.4 12.2 16.4 10.6 8.6-1.8 9.8-7.7 9.8-16.1q0-5.5 0.2-11.5 0-0.1 0-0.3 0-0.1 0-0.3 0.1-0.1 0.2-0.3 0-0.1 0.1-0.2 1-1.5 2.8-2.3 0.2-0.1 0.2-0.2 0.1-0.2 0.1-0.4 0-0.2-0.2-0.3-0.1-0.1-0.3-0.1l-9.1-0.5q-0.4 0-0.6 0.2-0.3 0.2-0.4 0.6 0 0.3 0.1 0.6 0.2 0.3 0.5 0.4l2.1 0.9q0.3 0.1 0.6 0.3 0.3 0.2 0.4 0.5 0.2 0.3 0.3 0.6 0.1 0.3 0.1 0.6 0.2 7.9 0.1 15.7 0 7.6-5.8 9.1c-6.6 1.6-12.8-1.6-12.8-9.1q0-7.3 0.1-13.5c0-3 0.8-4.2 3.4-5.5q0.2-0.1 0.2-0.2 0.1-0.2 0.1-0.3-0.1-0.2-0.2-0.3-0.1-0.1-0.3-0.1z"/>
		<path class="s0" d="m402.6 442.3q0 9.3 0 11 0 0.4-0.1 0.8-0.1 0.4-0.3 0.7-0.2 0.4-0.5 0.7-0.3 0.3-0.7 0.5l-2 1.1q-0.1 0.1-0.1 0.2-0.1 0.2-0.1 0.3 0 0.2 0.2 0.3 0.1 0.1 0.2 0.1 1.1 0.2 5.7 0.2 4.6 0 5.8-0.1 0.1-0.1 0.2-0.2 0.1-0.1 0.2-0.2 0-0.2-0.1-0.3 0-0.1-0.2-0.2l-1.9-1.2q-0.4-0.2-0.7-0.5-0.3-0.3-0.5-0.6-0.2-0.4-0.3-0.8-0.1-0.4-0.1-0.8 0-1.6 0.1-11 0-9.4 0-11 0-0.4 0.1-0.8 0.1-0.4 0.4-0.8 0.2-0.3 0.4-0.6 0.3-0.3 0.7-0.5l2-1.2q0.1 0 0.2-0.2 0-0.1 0-0.3 0-0.1-0.1-0.2-0.1-0.1-0.3-0.2-1.1-0.1-5.7-0.2-4.6 0-5.7 0.2-0.2 0-0.3 0.1-0.1 0.1-0.1 0.3 0 0.1 0 0.3 0.1 0.1 0.2 0.2l2 1.1q0.3 0.2 0.6 0.5 0.3 0.3 0.5 0.7 0.2 0.4 0.3 0.8 0.1 0.3 0.1 0.8 0 1.6-0.1 11z"/>
		<path class="s0" d="m468.3 456.8c-4.2-1-3.4-3.4-3.4-7.4q0.1-10.5 0.1-15.5 0-0.2 0.1-0.2 0.1-0.1 0.2-0.2 0.1 0 0.2 0 0.1 0 0.2 0.1 6.9 8.4 15.8 17.6 1.5 1.6 2.8 3.3c1.5 2 2.9 4.2 4.7 4.2q0.1 0 0.3-0.1 0.1-0.1 0.2-0.2 0.1-0.1 0.2-0.2 0.1-0.2 0.1-0.3 0.1-15.6 0.2-22.6c0.1-3.2-0.3-6.3 3.3-7.3q0.3-0.1 0.5-0.4 0.1-0.2 0.1-0.5-0.1-0.3-0.3-0.5-0.2-0.2-0.5-0.2h-9q-0.1 0-0.2 0 0 0-0.1 0.1-0.1 0-0.1 0-0.1 0-0.2 0.1-0.2 0.1-0.3 0.2 0 0.2 0 0.3-0.1 0.2 0 0.3 0 0.1 0.1 0.2 0.1 0.2 0.3 0.2 1.9 1 2 1.1 0.4 0.2 0.7 0.5 0.3 0.3 0.5 0.7 0.2 0.3 0.4 0.7 0.1 0.5 0.1 0.9l0.1 17.8q0 0.1-0.1 0.3-0.1 0.1-0.3 0.2-0.2 0.1-0.3 0-0.2 0-0.3-0.2l-20.1-22.6q-0.1-0.1-0.2-0.2-0.2-0.1-0.3-0.2-0.1-0.1-0.3-0.1-0.1-0.1-0.3-0.1-2.8-0.6-6.4 0-0.2 0-0.3 0.2-0.2 0.1-0.2 0.3 0 0.2 0 0.3 0.1 0.2 0.3 0.3l2.5 1.4q0.1 0.1 0.2 0.1 0 0.1 0.1 0.2 0.1 0.1 0.1 0.2 0.1 0 0.2 0.1 0.9 1.9 0.9 4.4 0 13.2-0.3 18.8 0 0.3-0.1 0.6 0 0.3-0.2 0.6-0.1 0.3-0.3 0.5-0.2 0.2-0.4 0.4l-2.7 2.4q-0.1 0-0.1 0.2-0.1 0.1 0 0.2 0 0.1 0.1 0.2 0.1 0.1 0.3 0.1l9.3-0.1q0.2 0.1 0.4-0.1 0.2-0.1 0.2-0.4 0-0.2-0.1-0.4-0.1-0.2-0.4-0.3z"/>
		<path class="s0" d="m568.8 457.5q0 0.1 0 0.2-0.1 0.1 0 0.2 0 0.1 0.1 0.1 0.1 0.1 0.2 0.1 9.2 0.2 16.6 0.1c8.5-0.1 16.4-5.8 16.8-14.2q0.7-14.8-13.8-17.4-3.2-0.6-18.9-0.1-0.1 0-0.2 0-0.1 0.1-0.2 0.1 0 0.1-0.1 0.2 0 0-0.1 0.1 0 0.3 0.2 0.7 0.1 0.1 0.1 0.2 0.1 0 0.1 0.1 0.1 0 0.1 0.1 0.1 0 0.2 0c2.5 0.8 3.1 1.4 3.1 4.1q0 10.5-0.1 21.5 0 0.5-0.2 0.9-0.2 0.4-0.5 0.8-0.3 0.3-0.7 0.6-0.4 0.3-0.9 0.5-1.1 0.3-1.8 1.1z"/>
		<path class="s0" d="m629.3 437.1q-0.4 0.3-1.4 2.3-0.1 0.2-0.3 0.4-0.2 0.3-0.4 0.4-0.2 0.1-0.5 0.2-0.3 0.1-0.5 0.1h-7.5q-0.2 0-0.3-0.1-0.2 0-0.3-0.1-0.1-0.2-0.1-0.3-0.1-0.2-0.1-0.3l0.5-10.7q0-0.1 0-0.2 0.1-0.1 0.2-0.2 0 0 0.2-0.1 0.1 0 0.2 0l8.3 0.4q0.4 0 0.8 0.1 0.5 0.2 0.8 0.4 0.4 0.3 0.7 0.7 0.3 0.3 0.4 0.7l1.1 2.7q0.2 0.3 0.4 0.4 0.3 0.2 0.6 0.1 0.3 0 0.5-0.3 0.2-0.2 0.3-0.5v-5.7q-0.1-0.2-0.2-0.5-0.1-0.2-0.2-0.4-0.2-0.2-0.5-0.3-0.2-0.1-0.5-0.1-6.9 0.1-21.1 0.2-0.6 0-0.9 0.2-0.2 0.1-0.2 0.3-0.1 0.1-0.1 0.3 0.1 0.2 0.2 0.3 0.1 0.2 0.3 0.2 3.4 0.7 3.5 4.3 0.4 10.9-0.2 21.8 0 0.4-0.1 0.7-0.1 0.3-0.3 0.5-0.2 0.3-0.4 0.5-0.3 0.2-0.6 0.4c-1.4 0.6-2.3 0.9-2.6 1.3q-0.2 0.3-0.1 0.5 0 0.4 0.5 0.4 21.5 0.2 23.2 0.1 0.3 0 0.5 0 0.2-0.1 0.4-0.2 0.2-0.2 0.3-0.4 0.2-0.1 0.3-0.4 1.2-3 1.3-6.6 0-0.2-0.1-0.3-0.1-0.2-0.2-0.2-0.2-0.1-0.3 0-0.2 0-0.3 0.2c-1.9 2.5-2.9 4.9-6.3 5.4q-4.4 0.7-8.5 0.1-0.3-0.1-0.6-0.3-0.3-0.1-0.5-0.4-0.2-0.2-0.4-0.5-0.1-0.4-0.1-0.7v-10.6q0-0.2 0.1-0.3 0-0.1 0.1-0.1 0.1-0.1 0.2-0.2 0.1 0 0.2 0l7.2 0.3q0.2 0 0.5 0.1 0.3 0.1 0.5 0.3 0.3 0.2 0.5 0.4 0.1 0.2 0.3 0.5l0.8 2.2q0.2 0.2 0.4 0.4 0.3 0.1 0.5 0.1 0.3-0.1 0.5-0.3 0.2-0.2 0.2-0.5l0.1-8.7q0-0.2-0.1-0.3 0-0.2-0.2-0.2-0.2-0.1-0.3-0.1-0.2 0.1-0.3 0.2z"/>
		<path class="s0" d="m673.4 442.3q0 9.3 0 11 0 0.4-0.1 0.8-0.2 0.4-0.4 0.7-0.2 0.4-0.5 0.7-0.2 0.3-0.6 0.5l-2 1.1q-0.1 0.1-0.2 0.2 0 0.1 0 0.3 0 0.1 0.1 0.2 0.1 0.2 0.3 0.2 1.1 0.2 5.7 0.2 4.6 0 5.7-0.2 0.1 0 0.2-0.1 0.2-0.1 0.2-0.3 0-0.1-0.1-0.2 0-0.2-0.1-0.3l-2-1.1q-0.4-0.2-0.7-0.5-0.2-0.3-0.4-0.7-0.2-0.3-0.3-0.7-0.2-0.4-0.2-0.8 0.1-1.7 0.1-11 0-9.3 0-10.9 0.1-0.4 0.2-0.8 0.1-0.4 0.3-0.8 0.2-0.3 0.5-0.6 0.3-0.3 0.6-0.5l2-1.2q0.1 0 0.2-0.2 0-0.1 0-0.3 0-0.1-0.1-0.2-0.1-0.1-0.3-0.2-1.1-0.1-5.7-0.2-4.5 0-5.7 0.2-0.1 0-0.2 0.1-0.1 0.1-0.2 0.3 0 0.1 0.1 0.3 0 0.1 0.2 0.2l1.9 1.1q0.4 0.2 0.7 0.5 0.2 0.3 0.4 0.7 0.2 0.3 0.3 0.7 0.2 0.4 0.2 0.8-0.1 1.7-0.1 11z"/>
		<path class="s0" d="m737 456.8q-3.7-0.5-3.6-5 0-4.5 0.1-17.9 0-0.2 0.1-0.4 0-0.1 0.2-0.1 0.2-0.1 0.3-0.1 0.2 0.1 0.3 0.2l21.6 25q0.2 0.3 0.5 0.4 0.3 0.1 0.6 0 0.3 0 0.6-0.2 0.2-0.2 0.3-0.5 0.3-0.6 0.3-0.7-0.1-1.7 0.3-25.3 0-3.6 3.6-4.4 0.2 0 0.4-0.2 0.1-0.2 0.1-0.4 0-0.3-0.2-0.4-0.1-0.2-0.4-0.2c-3.4-0.4-8.5-1-10.1-0.1q-0.2 0.1-0.3 0.3-0.1 0.2-0.1 0.4 0 0.2 0.2 0.4 0.1 0.1 0.3 0.2c4.4 1 4.1 3.9 4 8.1q-0.1 7.2-0.2 13.4 0 0.1-0.1 0.2-0.1 0.2-0.2 0.2-0.1 0.1-0.3 0-0.1 0-0.2-0.1-9.9-10.5-10.6-11.3c-3.5-3.6-5.9-7.2-8.9-10.6q-0.2-0.3-0.6-0.6-0.3-0.2-0.7-0.4-0.4-0.2-0.8-0.2-0.4-0.1-0.8-0.1h-5.1q-0.3 0-0.5 0.1-0.2 0.2-0.3 0.4 0 0.3 0.1 0.6 0.1 0.2 0.3 0.3l2.5 1.5q0.3 0.1 0.5 0.4 0.3 0.2 0.4 0.5 0.2 0.3 0.3 0.6 0.1 0.3 0.1 0.7v22.4q0 0.3-0.1 0.6-0.1 0.3-0.3 0.6-0.2 0.2-0.4 0.4-0.3 0.2-0.6 0.3l-2.5 1.1q-0.2 0.1-0.3 0.3-0.1 0.2-0.1 0.4 0.1 0.3 0.3 0.4 0.1 0.2 0.4 0.2h9.6q0.1 0 0.2-0.1 0.1 0 0.2-0.1 0.1 0 0.1-0.1 0-0.1 0-0.2v-0.3q0.1-0.1 0-0.2 0-0.1-0.1-0.2-0.1-0.1-0.2-0.2-0.1 0-0.2 0z"/>
		<path class="s0" d="m401.1 246.1c-12.3 5.3-22.2 17.6-24.5 30.3-1.6 9.4-1.4 18.7 2.5 27.6q6.4 14.5 19.7 21.1 21.1 10.5 42.5 0 6.8-3.4 11.2-8.2 0.1-0.2 0.2-0.5 0.1-0.2 0.2-0.4 0-0.3 0-0.6-0.1-0.2-0.2-0.4-0.7-1.3-2-3-30.8-40.3-38.8-50.9-5.9-7.8-10-14.7-0.1-0.1-0.2-0.2-0.1 0-0.2-0.1-0.1 0-0.2 0-0.1 0-0.2 0z"/>
		<path class="s0" d="m129.6 427.5c-1.5 0.1-3 0.6-4.4 1.5-1.3 0.9-2.5 2.1-3.5 3.5-1 1.5-1.7 3.2-2.1 5-0.5 1.8-0.6 3.8-0.4 5.7 0.1 1.9 0.6 3.8 1.3 5.6 0.8 1.7 1.8 3.3 3 4.5 1.2 1.3 2.5 2.3 4 2.9 1.5 0.6 3.1 0.9 4.6 0.8 1.5-0.2 3-0.7 4.4-1.5 1.3-0.9 2.5-2.1 3.5-3.6 1-1.4 1.7-3.1 2.1-4.9 0.5-1.9 0.6-3.8 0.4-5.8-0.1-1.9-0.6-3.8-1.3-5.5-0.8-1.8-1.8-3.3-3-4.6-1.2-1.3-2.5-2.2-4-2.9-1.5-0.6-3.1-0.8-4.6-0.7z"/>
		<path class="s0" d="m433.6 427.5c-1.5 0.1-3 0.6-4.4 1.5-1.4 0.8-2.6 2-3.5 3.5-1 1.4-1.8 3.1-2.2 4.9-0.5 1.9-0.6 3.8-0.5 5.7 0.2 2 0.6 3.9 1.4 5.6 0.7 1.7 1.7 3.3 2.9 4.6 1.2 1.3 2.6 2.2 4 2.9 1.5 0.6 3.1 0.9 4.6 0.7 1.6-0.1 3.1-0.6 4.4-1.4 1.4-0.9 2.6-2.1 3.6-3.5 1-1.5 1.7-3.2 2.2-5 0.4-1.8 0.6-3.8 0.4-5.7-0.1-1.9-0.6-3.8-1.3-5.6-0.8-1.7-1.8-3.3-3-4.5-1.1-1.3-2.5-2.3-4-2.9-1.5-0.7-3-0.9-4.6-0.8z"/>
		<path class="s0" d="m529.6 427.7q-0.9-0.1-1.7 0.2-0.9 0.3-1.6 1.1-0.7 0.7-1.2 1.7-0.4 1-0.6 2.1-0.1 1.1 0.1 2.2 0.2 1.1 0.8 1.9 0.5 0.9 1.2 1.4 0.8 0.5 1.7 0.6 0.9 0.1 1.7-0.2 0.9-0.3 1.6-1 0.7-0.8 1.2-1.8 0.4-1 0.5-2.1 0.2-1.1 0-2.2-0.3-1-0.8-1.9-0.5-0.9-1.3-1.4-0.7-0.5-1.6-0.6z"/>
		<path class="s0" d="m535.6 452.2c-3.9-1.2-7.1-5.5-10.2-9.2q-0.1-0.1-0.3-0.2-0.1-0.1-0.3-0.2-0.2 0-0.4 0-0.2 0-0.4 0.1c-5.5 2.7-4.4 10.8 1.2 12.6q5.9 1.9 10.6-2.6 0 0 0-0.1 0.1-0.1 0-0.2 0 0 0-0.1-0.1-0.1-0.2-0.1z"/>
		<path class="s0" d="m267.5 429.2l-0.1 12.1q-0.1 0.1 0 0.3 0.1 0.1 0.2 0.2 0.1 0.1 0.2 0.2 0.2 0.1 0.3 0.1h2.7q1.3 0 2.6-0.5 1.2-0.4 2.2-1.4 1-0.9 1.5-2.1 0.5-1.2 0.5-2.5v-0.4q0.1-1.3-0.4-2.5-0.5-1.3-1.5-2.2-0.9-0.9-2.1-1.5-1.3-0.5-2.6-0.5h-2.7q-0.1-0.1-0.3 0-0.1 0.1-0.2 0.2-0.2 0.1-0.2 0.2-0.1 0.2-0.1 0.3z"/>
		<path class="s0" d="m577.8 430.9l0.1 23.1q0 0.4 0.1 0.9 0.2 0.4 0.5 0.7 0.4 0.3 0.8 0.5 0.4 0.1 0.8 0.1h4.4c1.6 0 3.3-0.3 4.8-0.9 1.5-0.7 2.8-1.6 4-2.7 1.1-1.2 2.1-2.5 2.7-4 0.6-1.5 0.9-3.1 0.9-4.7v-3.1c0-1.6-0.4-3.2-1-4.7-0.6-1.5-1.6-2.8-2.7-3.9-1.2-1.2-2.6-2.1-4.1-2.7-1.5-0.6-3.1-0.9-4.7-0.9h-4.4q-0.4 0-0.9 0.2-0.4 0.2-0.7 0.5-0.3 0.3-0.5 0.7-0.2 0.5-0.1 0.9z"/>
	</g>
	<path class="s1" d="m299.6 33.4q0.1 0 0.1-0.1 0 0-0.1-0.1 0 0-0.1-0.1 0 0-0.1 0-12.8 6.1-23.1 12.8c-3.7 2.4-6.7 5.3-10.4 7.8q-1.8 1.3-4 3.4-10.6 10.5-20.7 23.8-2.6 3.3-11.9 12.1-12.3 11.6-27.9 18.6c-8 3.6-13.4 5.6-19.1 8.8q-19.2 10.6-34.6 25.9-0.1 0.1-0.1 0.1-0.1 0-0.2 0-0.1 0-0.2 0-0.1 0-0.1-0.1-0.1-0.1-0.1-0.2-0.1 0-0.1-0.1 0-0.1 0.1-0.2 0-0.1 0.1-0.1 5.8-5.9 7.4-7.2 11.3-8.7 11.5-8.8 12-8.6 20.9-12.6 17.4-7.8 18.2-8.3 8.9-4.8 15.7-9.7 3.2-2.3 6.1-5.1c5.9-5.6 11.3-10.8 16.5-17.4q6.1-7.8 10.1-12.3 20-22 47.7-33.1 0.2 0 0.3-0.1 0.1-0.1 0.2-0.1 0.2-0.1 0.3-0.2 0.1 0 0.2-0.1 9.9-7.1 11.8-8.3 3.3-2.1 10.3-4.9 0.1 0 0.1-0.1 0.1 0 0.1-0.1 0 0 0-0.1 0-0.1 0-0.2l-0.1-0.2q0-0.1 0-0.1 0 0-0.1 0 0-0.1 0-0.1-0.1 0-0.1 0-21.6 5.2-24.4 6.4-13.2 5.2-20 9.1-0.1 0.1-7.8 4.9-4.4 2.8-7.5 5.2-12.9 10.2-15.6 12.7-20.6 19.2-29.2 27.1-16.7 15.4-35.7 28c-17.7 11.7-37.9 21.4-58.8 24.7-14.1 2.2-30.3 1.3-40.8-9.8-6.5-6.9-6.3-18.1-1.4-25.1 3.8-5.7 10.3-9.1 17.1-7.7q4.3 0.9 6.7 4.9 0 0.1 0.1 0.2 0 0.1-0.1 0.2 0 0.1 0 0.2-0.1 0.1-0.2 0.1-0.1 0.1-0.2 0.1-0.1 0-0.2 0-0.1 0-0.2-0.1 0 0-0.1-0.1-1.5-2.4-3.5-3c-6.5-1.8-12.9 1.4-17 6.4-6.4 7.8-4.4 18.6 3 25.1 5.7 5 12.7 7.2 20.4 7.5q12.3 0.4 23.1-2.5 27.5-7.4 51.3-24 17.3-12 30.3-24.1 3.4-3 25.7-23.7 14.8-13.7 22.3-19.2 10.2-7.5 16-11.1 3-1.9 11.4-6 6.8-3.3 11.8-5.1 28-10.6 58.3-7.6c10.2 1.1 23 6 28.3 15.3 8.1 14.1-9.7 30.7-23.6 24.4q-5.5-2.5-8.4-8.4 0-0.1 0-0.1 0 0 0 0 0 0 0.1 0 0 0 0 0v-0.1q0.1 0 0.2 0 0 0 0.1 0 0.1 0 0.2 0 0.1 0.1 0.1 0.2 7.8 11.8 19.3 6.9c6.2-2.6 10.4-7.8 11.1-14.4 0.8-7.8-6.4-14.5-13.3-16.7-19.3-6.3-40.7-2.6-58 7.6q-5.2 3.1-9.3 6.5c-4.4 3.6-7.8 5.9-11.5 9.7q-6.4 6.7-11.8 15.4-0.8 1.4-2.1 6.5 0 0.1 0 0.2 0 0.1 0.1 0.2 0.1 0.1 0.2 0.1 0.1 0 0.2 0 5.7-0.5 9 3.8c5.6 7.2-0.9 18.3-10.1 15.8-6.7-1.8-10.5-10.7-5.6-16.3q0.6-0.7 2.9-3.2 0.1-0.1 0.2-0.2 0.1-0.2 0.2-0.3 0.1-0.1 0.1-0.2 0.1-0.2 0.2-0.3c1.2-2.2 2.2-5.3 4.2-8.1 3.4-5 5.6-8.6 9.3-12.6q2.8-3 8.3-8.6z"/>
	<path class="s1" d="m545.7 35.1q6.4 6.8 8.5 9.4 4.2 5.2 8.8 13.3c1 1.8 1.4 4.1 2 5.4q0 0.2 0.1 0.3 0.1 0.1 0.2 0.3 0.1 0.1 0.2 0.2 0.1 0.1 0.2 0.2c0.8 0.9 2.3 1.7 3.3 2.9 6.8 9.3-5.3 22.1-14.2 14q-4.1-3.7-3.5-8.8c0.6-5.7 5.3-8.9 10.9-9q0.1 0 0.2 0 0.1-0.1 0.2-0.2 0.1-0.1 0.1-0.2 0-0.1 0-0.2c-2.2-6.1-4.7-10.9-9-15.9-4.7-5.5-8-9.6-13.1-13.4q-5.1-3.7-9.1-6.3c-16.4-10.4-36.9-15.4-56.1-11.5-7.1 1.5-16.2 5.9-18.3 13.8q-2.2 8 3.7 14.2 4.9 5.2 10.9 6 10.5 1.4 14.9-8.3 0 0 0 0 0 0 0 0 0 0 0.1 0 0 0 0 0h0.3q0.1 0 0.2 0.1 0 0 0.1 0.1 0 0 0 0.1 0 0.1 0 0.1-3.3 7.3-9.3 8.8-10.5 2.6-18.5-4.4-5.3-4.6-5.7-12.1c-0.3-5.7 1.7-9.9 6.1-13.6 6.2-5.4 11.9-7.3 20-9.2q4.3-1 9-1.3c27.1-1.6 53.6 5.5 77.1 19.4q1.6 1 9.7 6.4 4.9 3.3 9.4 6.9 16.2 13.5 30 27.1 2.5 2.4 23.2 20.8c3.2 2.9 7.2 5.2 10.4 8.3q1.5 1.4 4.3 3.3 16.1 11.1 21.5 14 19.2 10.3 36.1 15 13.4 3.6 29.1 1.9 2.4-0.2 7.8-2.5c7.1-3 13.3-10.4 13.3-18.3 0-9.8-8.6-19.6-19.2-17.8-2.5 0.3-3.7 2.1-5.3 3.5q-0.1 0-0.2 0-0.1 0-0.2 0-0.1-0.1-0.1-0.2 0-0.1 0.1-0.2 2.3-4.9 7.8-5.5c9.3-1.1 17.4 6.4 19.1 15.2 2.4 13.4-7.9 23.7-20 26.6q-9.7 2.3-17.8 1.6-10.2-0.9-15-2.3c-5.6-1.6-11.1-2.9-16.3-5.1q-17.7-7.3-31.9-16.3c-6.4-4-13.3-9.3-19.2-13.7q-3.7-2.7-7.4-5.9-16.9-14.6-30.9-27.8-7.5-7.2-13.8-12.4-11.7-9.7-14.4-11.5-10.6-6.7-10.8-6.9-2.7-1.9-6.4-3.5c-2.3-1-5.7-3.2-8.8-4.4q-14.8-5.7-30.9-8.7-0.1 0-0.2 0.1-0.1 0.1-0.2 0.2 0 0.1 0 0.2 0.1 0.1 0.2 0.2c3.8 1.8 7.5 3.1 11 5.4q5.8 3.8 12.3 8.4 0 0.1 0 0.1l4.3 2.4q0 0 0 0 0 0 0.1 0 0 0 0 0 0 0 0 0 12.1 4.8 19.9 10.2 15 10.5 25.8 23.7 8.9 10.8 13.7 16.4 3.9 4.6 7.8 7.8 8.1 6.6 8.3 6.7c10.2 7.9 18.5 11 34.1 17.6q0.2 0.1 0.4 0.1 0.1 0.1 0.3 0.2 0.2 0.1 0.4 0.2 0.1 0.1 0.3 0.2c3.6 2.5 7.3 4.2 11.2 6.6q14.7 9.2 26.9 22.2 0.1 0 0.1 0.1 0 0.1 0 0.1 0 0.1 0 0.2 0 0-0.1 0.1l-0.3 0.3q0 0-0.1 0-0.1 0-0.1 0-0.1 0-0.2 0 0 0-0.1-0.1-2-2.7-3.2-3.8-6.2-5.6-11.8-10.1-16-12.7-36.4-20.7c-10.2-3.9-19.4-10.3-28.4-17.6q-5.6-4.6-10.8-10.7-9.6-11.4-15-17.8-3.4-4-8.1-8.3-8.6-7.8-17.8-14-4.3-2.9-14.3-7.1c-1.2-0.5-2.6-1.5-3.2-1.7q-0.1 0-0.2 0-0.1 0-0.1 0.1-0.1 0.1-0.1 0.2 0 0.1 0.1 0.1z"/>
	<path fill-rule="evenodd" class="s1" d="m217.6 54.3c-5.1 0-9.3-4.2-9.3-9.3 0-5.1 4.2-9.2 9.3-9.2 5.1 0 9.2 4.1 9.2 9.2 0 5.1-4.1 9.3-9.2 9.3z"/>
	<path fill-rule="evenodd" class="s1" d="m625.5 54.2c-5.1 0-9.2-4.1-9.2-9.2 0-5.1 4.1-9.2 9.2-9.2 5.1 0 9.2 4.1 9.2 9.2 0 5.1-4.1 9.2-9.2 9.2z"/>
	<path class="s1" d="m348.9 117.7h17.2q0.1 0 0.2 0 0.1 0.1 0.2 0.2 0.1 0.1 0.2 0.2 0 0.1 0 0.2v12.6q0 0.1 0 0.2-0.1 0.2-0.2 0.3-0.1 0.1-0.2 0.1-0.1 0.1-0.3 0.1h-46q-0.1 0-0.2-0.1-0.1 0-0.1-0.1-0.1-0.1 0-0.2 0-0.1 0.1-0.2 4.8-4.4 7.7-6.8 20.1-16.5 38.4-32.6 5.5-4.8 10.1-8.3 0.3-0.2 0.5-0.5 0.2-0.4 0.2-0.7 0-0.4-0.1-0.7-0.1-0.3-0.3-0.5-0.6-0.4-0.5-1.9 0.8-11.6-0.4-21.5-0.1-0.2-0.2-0.4-0.1-0.3-0.3-0.4-0.1-0.2-0.4-0.3-0.2-0.1-0.5-0.1l-2-0.1q-0.4 0-0.7-0.3-0.3-0.2-0.4-0.6 0-0.4 0.1-0.8 0.2-0.3 0.6-0.5 0.9-0.4 3.7-0.4 6.9-0.1 14.4 0.3 0.1 0.1 0.2 0.1 0.1 0.1 0.2 0.3 0 0.1-0.1 0.3 0 0.1-0.2 0.2l-2.3 1.3q-0.4 0.2-0.7 0.6-0.4 0.3-0.6 0.7-0.2 0.4-0.4 0.8-0.1 0.4-0.1 0.9l-0.7 15.4q0 0.2 0.1 0.3 0.1 0.2 0.2 0.3 0.2 0 0.4 0 0.1 0 0.3-0.1l34.4-29.8q0.3-0.3 0.7-0.4 0.3-0.1 0.7-0.1 0.4 0 0.7 0.1 0.4 0.1 0.7 0.4l99.8 85.7q0.1 0.1 0.1 0.2 0.1 0.1 0 0.2 0 0.1-0.1 0.2-0.1 0-0.2 0.1h-45q-0.2-0.1-0.3-0.1-0.1-0.1-0.3-0.2-0.1-0.1-0.1-0.2-0.1-0.1-0.1-0.3v-12.3q0-0.1 0.1-0.2 0-0.2 0.1-0.3 0.1-0.1 0.3-0.1 0.1-0.1 0.3-0.1h16.5q0.2 0 0.4-0.1 0.1-0.1 0.2-0.3 0.1-0.2 0-0.4 0-0.2-0.2-0.3l-72.4-62.2q-0.1-0.1-0.3-0.2-0.1 0-0.2 0-0.2 0-0.3 0-0.2 0.1-0.3 0.2-8.7 7.1-12.3 10.4c-6.5 6-14.5 12.2-19.3 16.7-3.6 3.3-6.6 5.3-10.6 8.7q-16.3 14-30.4 26.8 0 0.1-0.1 0.2 0 0.1 0 0.2 0.1 0.1 0.2 0.1 0.1 0.1 0.2 0.1z"/>
	<path class="s1" d="m409.8 81.9q-0.1 0-0.1 0 0-0.1 0-0.1 0 0-0.1 0 0 0 0-0.1c0.1-1.4 0.4-2.9 1-4.2 0.6-1.3 1.5-2.5 2.7-3.5 1.1-1 2.5-1.8 4-2.4 1.5-0.5 3.1-0.8 4.7-0.8h0.1c1.6 0 3.2 0.3 4.7 0.9 1.5 0.6 2.8 1.4 3.9 2.4 1.2 1.1 2 2.3 2.6 3.6 0.7 1.4 1 2.8 0.9 4.2v0.1q0 0 0 0 0 0 0 0 0 0.1 0 0.1 0 0-0.1 0z"/>
	<path class="s1" d="m421.6 85.4c10.2 0 20.3-0.3 30.3-0.2q0.1 0.1 0.2 0.1 0.1 0 0.2 0.1 0.1 0.1 0.1 0.2 0 0.1 0.1 0.2v48.3q-0.1 0.2-0.1 0.4-0.1 0.2-0.3 0.4-0.1 0.1-0.3 0.2-0.2 0.1-0.4 0.1h-14.4q-0.1 0-0.2-0.1-0.2 0-0.3-0.1-0.1-0.2-0.1-0.3-0.1-0.1-0.1-0.3 0.1-23.3-0.1-32.1c-0.2-8.6-6.2-14.1-14.6-14.1-8.4 0-14.5 5.5-14.6 14.1q-0.2 8.8-0.2 32.1 0 0.2 0 0.3-0.1 0.1-0.2 0.2-0.1 0.1-0.2 0.2-0.1 0.1-0.3 0.1h-14.4q-0.2 0-0.4-0.1-0.1-0.1-0.3-0.3-0.1-0.1-0.2-0.3-0.1-0.2-0.1-0.4v-48.3q0-0.1 0.1-0.2 0-0.1 0.1-0.2 0.1-0.1 0.2-0.1 0.1-0.1 0.2-0.1c10-0.1 20 0.2 30.3 0.2z"/>
	<path class="s1" d="m414.5 131.3q-0.2 0-0.3 0-0.2-0.1-0.3-0.2-0.1-0.1-0.1-0.2-0.1-0.2-0.1-0.3l0.2-27.6q0-1.6 0.6-3 0.6-1.5 1.7-2.6 1-1.1 2.5-1.7 1.4-0.6 2.9-0.6h0.2q1.5 0 2.9 0.6 1.4 0.6 2.5 1.8 1.1 1.1 1.7 2.6 0.5 1.4 0.5 3l-0.1 27.6q0 0.1-0.1 0.3 0 0.1-0.1 0.2-0.1 0.1-0.3 0.2-0.1 0-0.3 0z"/>
	<path fill-rule="evenodd" class="s1" d="m288.3 137.5h266c0.3 0 0.6 0.3 0.6 0.6v3.4c0 0.3-0.3 0.6-0.6 0.6h-266.1c-0.3 0-0.6-0.3-0.6-0.6v-3.4c0-0.3 0.3-0.6 0.7-0.6z"/>
	<path class="s1" d="m463.3 301q0.9-0.6 1.8-2.4c4.3-9 7.5-21.4 4.2-30.6q-4-11.4-15.1-12.1-0.4 0-0.7-0.2-0.3-0.1-0.5-0.4-0.3-0.2-0.4-0.6-0.1-0.3-0.1-0.6l0.1-2q0-0.3 0.2-0.6 0.1-0.2 0.3-0.4 0.2-0.2 0.5-0.3 0.3 0 0.6 0 1.9 0.4 8.5 0.4 8 0 14.3-2c7.4-2.3 17.3-11 22.9-2.6 2.3 3.4 1.6 6.9-1.9 8.9-3.5 2.2-13.1 6-15.6 9.5-3.7 5.4-4 11.5-5.6 19.8q-0.9 4.6-5.1 15.6c-1.1 3-3.5 6.4-4.9 9.6q0 0.1-0.1 0.2 0 0.1 0 0.3 0 0.1 0.1 0.2 0 0.1 0.1 0.2 9.3 14 9.5 14.2c1.6 1.9 2.5 3.6 4.4 4.6 3.8 1.8 7.1-1.2 10.1-2.9q0.2-0.1 0.4-0.1 0.2-0.1 0.4 0 0.2 0 0.4 0.1 0.2 0.1 0.4 0.3 2.5 2.7 0.1 4.7c-3.4 2.9-10.8 9.5-15.2 10-5.6 0.6-9.3-1.7-12.7-6.3q-3.5-4.8-6.7-11.2-0.1-0.2-0.3-0.3-0.2-0.2-0.4-0.2-0.2 0-0.5 0-0.2 0.1-0.3 0.3-5.5 5.6-12.6 10.1c-24.9 16.1-59.5 12.1-77.9-12-20.8-27.3-8.8-62.2 20.8-76.9q5.5-2.7 12.3-5.3 0.2 0 0.3-0.2 0.2-0.1 0.2-0.3 0.1-0.1 0-0.3 0-0.2-0.1-0.3-4.8-6.8-8.9-14.5c-9.5-18.1-3.6-39.5 16.1-46.8q21.5-7.8 40 4.9c7.5 5.1 15.1 20.2 5.1 27.3-3.7 2.7-8.7 1-9.4-3.7q-0.2-1 0-4c0.4-7.4-3.6-13.7-9.9-16.9-5.3-2.8-13.8-3.1-19.4-0.1-10.8 5.7-11.6 19.1-7.5 29.4 3.6 9 11.3 19.1 17.9 25.3q0.5 0.5 0.7 1.1 0.1 0.2 0.1 0.4-0.1 0.2-0.1 0.3-0.1 0.2-0.2 0.3-0.2 0.1-0.3 0.2l-3.6 1.5q-0.1 0-0.2 0.1-0.1 0.1-0.2 0.3 0 0.1 0 0.2 0 0.2 0.1 0.3 1.3 2 3.3 4.6 9.4 12.4 19.6 24.5 5.5 6.6 19.8 27.3 0.1 0.1 0.2 0.1 0.1 0.1 0.2 0.1 0.1 0 0.2 0 0.1 0 0.2-0.1zm-62.2-54.9c-12.3 5.3-22.2 17.6-24.5 30.3-1.6 9.4-1.4 18.7 2.5 27.6q6.4 14.5 19.7 21.1 21.1 10.5 42.5 0 6.8-3.4 11.2-8.2 0.1-0.2 0.2-0.5 0.1-0.2 0.2-0.4 0-0.3 0-0.6-0.1-0.2-0.2-0.4-0.7-1.3-2-3-30.8-40.3-38.8-50.9-5.9-7.8-10-14.7-0.1-0.1-0.2-0.2-0.1 0-0.2-0.1-0.1 0-0.2 0-0.1 0-0.2 0z"/>
	<path class="s1" d="m184.9 200.7q-0.1 0-0.1 0 0 0.1 0 0.1 0 0-0.1 0.1 0 0 0 0-0.5 55.5-0.1 108.6c0.1 5.5 0.6 13.6 3.9 19.7 3.8 6.9 10 8.2 17.2 8.5q0.2 0 0.4 0.1 0.2 0.1 0.4 0.2 0.1 0.1 0.2 0.3 0 0.2 0 0.4v1.3q0 0.2 0 0.4-0.1 0.2-0.3 0.3-0.1 0.2-0.3 0.3-0.2 0-0.4 0h-50.3q-0.3 0-0.5-0.1-0.3-0.1-0.5-0.3-0.2-0.1-0.3-0.4-0.1-0.2-0.1-0.5v-0.6q0-0.3 0.1-0.5 0.1-0.3 0.3-0.5 0.2-0.2 0.5-0.3 0.2-0.1 0.5-0.1 5.8-0.3 7.4-0.9c13.6-5.1 14.9-16 14.9-28.8q0.1-47.5 0.1-95.5c0-16.1-2.2-29.2-22.1-29.2q-0.2 0-0.5-0.1-0.2-0.1-0.3-0.2-0.2-0.2-0.3-0.4-0.1-0.2-0.1-0.5v-0.7q0-0.3 0.1-0.5 0.1-0.2 0.3-0.4 0.2-0.2 0.4-0.3 0.2-0.1 0.5-0.1h43.2q0.2 0 0.4 0.1 0.2 0 0.4 0.1 0.1 0.2 0.3 0.3 0.1 0.2 0.2 0.4l48.7 120.1q0 0 0 0.1 0 0 0 0.1 0.1 0 0.1 0.1 0 0 0 0.1l0.5 3q0.1 0.2 0.2 0.4 0.2 0.1 0.3 0.2 0.2 0 0.4-0.1 0.2 0 0.3-0.2 0.9-1.1 1.7-3 4.8-11.8 28.8-69c7.7-18.2 14-34.1 21.8-51.9q0.1-0.2 0.2-0.3 0.2-0.1 0.3-0.3 0.2-0.1 0.4-0.1 0.2-0.1 0.4-0.1h41.6q0.3 0 0.5 0.1 0.2 0.1 0.3 0.2 0.2 0.2 0.2 0.4 0.1 0.2 0.1 0.4v1.1q0 0.1-0.1 0.3 0 0.2-0.2 0.3-0.1 0.1-0.3 0.2-0.1 0.1-0.3 0.1c-16.3-0.6-21.7 10.5-21.8 24.8q0 36.9 0 103.3c0 11.5 1.8 22.5 14.5 25.7q3.2 0.9 7.1 0.8 0.2 0 0.4 0 0.2 0.1 0.4 0.3 0.2 0.1 0.2 0.3 0.1 0.2 0.1 0.4v1.1q0 0.2-0.1 0.4-0.1 0.2-0.2 0.4-0.2 0.2-0.4 0.3-0.2 0-0.5 0.1l-64.3-0.1q-0.2 0-0.4 0-0.1-0.1-0.3-0.2-0.1-0.2-0.2-0.4-0.1-0.1-0.1-0.3v-1.4q0-0.2 0.1-0.4 0.1-0.2 0.2-0.3 0.1-0.1 0.3-0.2 0.2-0.1 0.3-0.1 2.1-0.1 4.3-0.3c12.7-1.5 17.1-11.6 17.1-23.1q-0.2-94.6 0.1-113.5 0-1-0.3-1.4-0.1-0.1-0.2-0.2-0.2-0.1-0.3 0-0.2 0-0.3 0.1-0.1 0.1-0.2 0.2l-58.1 139.5q0 0.2-0.2 0.3-0.2 0.2-0.4 0.2-0.2 0-0.4-0.1-0.2 0-0.4-0.2-0.3-0.4-0.8-1.6-43.7-107.9-55.9-136.7-0.2-0.5-0.6-0.2z"/>
	<path class="s1" d="m670.5 183.3c-2.5 0-7.2 0.2-9.8 1.2-9.9 3.6-11.7 13.7-11.8 23.2q0 52.2 0 104.7c0 10.4 2.1 21.4 13.7 24.5 2.2 0.6 5.2 0.6 7.6 0.8q0.2 0 0.4 0.1 0.2 0.1 0.3 0.3 0.2 0.1 0.3 0.3 0 0.3 0 0.5v1q0 0.2-0.1 0.4 0 0.2-0.2 0.4-0.2 0.2-0.4 0.3-0.2 0.1-0.5 0.1h-64.3q-0.2 0-0.4-0.1-0.2-0.1-0.3-0.2-0.1-0.2-0.2-0.3-0.1-0.2-0.1-0.4v-1.5q0-0.2 0.1-0.3 0.1-0.2 0.2-0.3 0.1-0.2 0.3-0.2 0.2-0.1 0.4-0.1c10.1 0.3 17.6-3.7 20.4-13.6q1.2-4.2 1.3-12.8 0.1-11.2-0.2-47.9 0-0.1 0-0.2-0.1-0.1-0.2-0.2-0.1-0.1-0.2-0.1-0.1-0.1-0.2-0.1h-81.7q-0.1 0-0.2 0.1-0.1 0-0.2 0.1-0.1 0-0.1 0.1-0.1 0.1-0.1 0.3-0.1 20.6 0 52.1c0 13.5 6 22.6 20.6 22.3q0.3 0 0.5 0.1 0.2 0.1 0.4 0.3 0.2 0.1 0.3 0.4 0.1 0.2 0.1 0.4v1q0 0.2-0.1 0.4-0.1 0.2-0.2 0.3-0.2 0.2-0.4 0.3-0.2 0-0.4 0h-64.3q-0.2 0-0.4 0-0.2-0.1-0.4-0.3-0.1-0.1-0.2-0.3-0.1-0.2-0.1-0.4v-1.1q0-0.2 0.1-0.4 0.1-0.2 0.2-0.4 0.2-0.1 0.4-0.2 0.2-0.1 0.4-0.1 1.3 0 6.5-0.7 7-1.1 10.9-6.9c4-6 4.2-13.2 4.2-20.7q-0.1-22.1 0-100.5c0.1-11.4-2-22.8-14.9-25.1q-2.5-0.5-6.1-0.8-0.2-0.1-0.5-0.2-0.2-0.1-0.3-0.2-0.2-0.2-0.3-0.4-0.1-0.2-0.1-0.5v-0.4q0.1-0.2 0.1-0.5 0.1-0.2 0.3-0.4 0.2-0.2 0.4-0.3 0.3 0 0.5-0.1h63.3q0.3 0.1 0.5 0.1 0.2 0.1 0.4 0.3 0.2 0.2 0.3 0.4 0.1 0.3 0.1 0.5v0.5q0 0.2-0.1 0.4-0.1 0.2-0.2 0.3-0.1 0.2-0.3 0.3-0.2 0-0.4 0.1-3.6 0.3-7 1.1c-11 2.3-13.7 11.6-13.8 21.6q0 26.2-0.1 45 0 3.1 0.4 4.8 0 0.1 0.1 0.2 0 0.1 0.1 0.2 0.1 0 0.2 0.1 0 0 0.1 0h81.4q0.2 0 0.3-0.1 0.2 0 0.3-0.1 0.1-0.2 0.2-0.3 0-0.2 0.1-0.3 0-26.3 0-48.2 0-8.4-3.6-15.6c-3-6-11.9-8.2-18.1-8.1q-0.2 0-0.4-0.1-0.1 0-0.2-0.2-0.2-0.1-0.2-0.2-0.1-0.2-0.1-0.4v-1.3q0-0.2 0.1-0.4 0.1-0.2 0.2-0.3 0.1-0.1 0.3-0.2 0.2-0.1 0.4-0.1h64.5q0.2 0 0.4 0.1 0.2 0.1 0.4 0.2 0.1 0.2 0.2 0.4 0.1 0.1 0.1 0.4v1.2q0 0.2-0.1 0.3 0 0.2-0.2 0.3-0.1 0.1-0.2 0.2-0.2 0.1-0.4 0.1z"/>
	<path fill-rule="evenodd" class="s1" d="m121.3 236.6c-6 0-10.9-4.9-10.9-10.9 0-6.1 4.9-11 10.9-11 6.1 0 11 4.9 11 11 0 6-4.9 10.9-11 10.9z"/>
	<path fill-rule="evenodd" class="s1" d="m718.1 236.6c-6 0-10.9-4.8-10.9-10.9 0-6 4.9-10.8 10.9-10.8 6 0 10.9 4.8 10.9 10.8 0 6.1-4.9 10.9-10.9 10.9z"/>
	<path class="s1" d="m706.8 297.5q0-0.1 0-0.2 0-0.1 0-0.1 0-0.1 0.1-0.1 0-0.1 0.1-0.1 0.1-0.1 0.2-0.1 0 0 0.1 0 0 0.1 0.1 0.1 0 0 0.1 0.1 7 13 15.3 22.1 5.4 5.8 15.7 12.8c18.4 12.6 42.2 15.9 63.3 7.3q3.1-1.2 11.1-7.4c9.8-7.8 16.7-21.8 13.2-34.8q-5.8-21.4-26.7-28.6-8.2-2.8-17.1-0.9c-6.5 1.4-18.4 8-11.7 16.1q1 1.3 2.9 1.4c3.9 0.1 7.2 0.3 9.5 3.8q2 2.9 1.3 5.7c-1.3 5.4-6.6 7.1-11.2 5-6.2-2.7-9.2-10.1-8.9-16.7 0.4-9.3 8.3-17 16.8-19.4 6.2-1.8 12.9-2 19.3-0.2 16.1 4.4 28.8 16.9 31.3 33.6 2.3 15-4.8 29.2-16.3 38.7q-6 5.1-15.4 8.5-19.9 7.2-41.2 0.4c-23-7.4-41.4-25.6-51.9-47z"/>
	<path class="s1" d="m131.6 297.1q0 0.1 0.1 0.1 0 0.1 0 0.1 0.1 0.1 0.1 0.2 0 0-0.1 0.1-4.8 10.5-12.9 20.2-5 5.9-9.2 9.7-14.2 13.1-32.2 17.9c-18.4 4.8-37.5 2.3-52.7-8.8-22.9-16.6-24-49.6-0.6-66.4q9.4-6.7 20.4-7.8c11.6-1.2 24.7 3.1 28.8 14.6q5 13.9-5.8 22.1c-4 3.1-11.4 1.2-12.6-4.3q-0.6-3 1.2-5.5c2.4-3.5 5.9-3.8 10.2-4.1q0.2 0 0.3 0 0.1 0 0.3-0.1 0.1 0 0.2-0.1 0.1-0.1 0.3-0.1c4-2.9 3.7-7.1 0.8-10.7-7.4-9-22.4-8.8-32.3-4.3q-18.6 8.5-23.1 28.1c-3.4 14.9 5.3 29.3 17.2 37.2 20.8 13.8 49.3 10.6 69.6-2.6 5.2-3.4 11.2-7.8 15.7-12.7q9.5-10.3 15.8-22.6 0.1-0.1 0.1-0.1 0-0.1 0.1-0.1 0.1 0 0.1 0 0.1 0 0.2 0z"/>
	<path class="s1" d="m91.3 383.2q5.6-0.2 7.2-0.1c20.7 1.3 45.2 1 63.9 0.8q12.6-0.2 29.7-1.5 34.9-2.5 67.7-7.5c14-2.2 22.6-3.2 39.5-5.4q35.2-4.4 71-1.5c8.2 0.7 19.9 3.1 27 5.3 7 2.1 20.6 8.9 9.2 17.2q-3.2 2.4-8.9 4.3c-19.3 6.1-43.7 6.9-63.9 4.2q-17.1-2.2-35.7-9.9 0-0.1-0.1-0.1 0 0 0-0.1-0.1-0.1-0.1-0.1 0-0.1 0.1-0.2 0 0 0-0.1 0.1 0 0.1-0.1 0.1 0 0.1 0 0.1 0 0.2 0 29 7.9 59 6.2 12.5-0.7 23.4-4.1 4.2-1.3 6.2-3.1c4.6-4.2-2.5-7.4-5.7-8.5q-4.9-1.5-11.9-2.4c-31.1-4-63.1-0.4-93.5 3.1-34.2 3.9-64.1 7.3-95.5 7.8q-44.9 0.7-88.8-3.7 0 0-0.1 0 0-0.1 0-0.1 0 0-0.1 0 0-0.1 0-0.1v-0.3q0 0 0 0 0 0 0 0 0 0 0 0 0 0 0 0z"/>
	<path class="s1" d="m748.3 383.5q0 0.1 0 0.1 0 0 0 0.1-0.1 0-0.1 0 0 0-0.1 0-43.9 4.4-88.9 3.7c-31.4-0.5-61.3-3.9-95.6-7.8-30.4-3.5-62.4-7.1-93.6-3.2q-7 0.9-11.9 2.5c-3.3 1-10.3 4.2-5.7 8.4q2 1.9 6.2 3.2 10.9 3.4 23.5 4.1 30 1.7 59-6.2 0.1 0 0.2 0 0 0 0.1 0 0 0.1 0.1 0.1 0 0.1 0 0.1 0.1 0.1 0.1 0.2 0 0-0.1 0.1 0 0.1 0 0.1-0.1 0.1-0.1 0.1-18.6 7.7-35.7 9.9c-20.2 2.7-44.7 1.9-64-4.3q-5.7-1.8-9-4.2c-11.3-8.3 2.3-15.1 9.2-17.3 7.2-2.2 18.9-4.5 27.1-5.2q35.8-3 71.1 1.5c16.9 2.2 25.5 3.2 39.6 5.4q32.8 5.1 67.8 7.6 17.1 1.2 29.6 1.4c18.8 0.2 43.4 0.6 64.1-0.8q1.6-0.1 7.1 0.2 0 0 0 0 0 0 0 0 0 0 0 0 0 0 0 0z"/>
	<path class="s1" d="m148.3 441.5c0.1 2.2-0.2 4.4-1 6.4-0.8 2.1-2 4-3.6 5.6-1.6 1.6-3.4 2.9-5.5 3.8-2.1 0.9-4.3 1.4-6.6 1.5-2.3 0.1-4.6-0.2-6.8-1-2.1-0.7-4.1-1.9-5.8-3.3-1.7-1.5-3-3.3-4-5.3-0.9-2-1.5-4.1-1.6-6.3-0.1-2.2 0.3-4.4 1.1-6.4 0.8-2.1 2-4 3.6-5.6 1.5-1.6 3.4-2.9 5.5-3.8 2.1-0.9 4.3-1.4 6.6-1.5 2.3-0.1 4.6 0.2 6.8 1 2.1 0.7 4.1 1.9 5.8 3.3 1.6 1.5 3 3.3 4 5.3 0.9 2 1.5 4.1 1.5 6.3zm-18.7-14c-1.5 0.1-3 0.6-4.4 1.5-1.3 0.9-2.5 2.1-3.5 3.5-1 1.5-1.7 3.2-2.1 5-0.5 1.8-0.6 3.8-0.4 5.7 0.1 1.9 0.6 3.8 1.3 5.6 0.8 1.7 1.8 3.3 3 4.5 1.2 1.3 2.5 2.3 4 2.9 1.5 0.6 3.1 0.9 4.6 0.8 1.5-0.2 3-0.7 4.4-1.5 1.3-0.9 2.5-2.1 3.5-3.6 1-1.4 1.7-3.1 2.1-4.9 0.5-1.9 0.6-3.8 0.4-5.8-0.1-1.9-0.6-3.8-1.3-5.5-0.8-1.8-1.8-3.3-3-4.6-1.2-1.3-2.5-2.2-4-2.9-1.5-0.6-3.1-0.8-4.6-0.7z"/>
	<path class="s1" d="m217.1 434.2q-0.1 0.3-0.2 0.4-0.2 0.2-0.4 0.3-0.3 0-0.5-0.1-0.2-0.1-0.3-0.3c-1.3-3-2.5-5.9-6-6.6q-5.2-1.1-7.1 3.1c-1.6 3.3 0.2 5.5 3.3 7.1q4 2.1 6.9 3.3c5.3 2.4 7.9 8.9 3.7 13.6-4.5 5.2-12.8 4.6-18.7 2.1q-0.2 0-0.3-0.1-0.1-0.1-0.2-0.2-0.1-0.1-0.1-0.2-0.1-0.2-0.1-0.3-0.8-4.2 0.1-7.2 0.1-0.2 0.2-0.3 0.2-0.1 0.4-0.1 0.3 0 0.4 0.2 0.2 0.1 0.2 0.3 1.2 6.8 8.4 7.6c4.8 0.5 8.6-3.6 6-8.1-1-1.8-4.1-3.3-6.5-4.3-3.8-1.6-8.6-4.4-8.9-8.7-0.2-3 0.6-5.8 3.2-7.6 4.7-3.4 10.5-2.7 15.9-1q0.2 0 0.3 0.1 0.2 0.2 0.3 0.3 0.1 0.2 0.2 0.4 0 0.2 0 0.4z"/>
	<path class="s1" d="m359.2 427.9q0.4 3.5 0.1 6.9-0.1 0.4-0.3 0.6-0.3 0.2-0.6 0.2-0.4 0-0.6-0.2-0.3-0.2-0.4-0.5-0.9-5.1-5.4-6.4-6.1-1.8-10.7 1.3c-5.9 3.7-6.4 13.7-3.7 19.6 4.1 8.9 16.3 9.6 21.3 1.5q0.1-0.2 0.3-0.3 0.2-0.1 0.5 0 0.2 0 0.3 0.2 0.2 0.1 0.3 0.4c0.3 2.2-1 4-2.9 5.2-8.1 5-20.1 2.8-25.1-5.7-4.3-7.5-1.8-17 5-21.8 6.2-4.5 13.4-3.1 21.2-1.7q0.1 0 0.2 0.1 0.1 0 0.2 0.1 0.1 0.1 0.2 0.2 0 0.1 0.1 0.3z"/>
	<path class="s1" d="m452.3 440.7c0.2 2.2-0.1 4.4-0.8 6.5-0.7 2-1.8 4-3.3 5.7-1.5 1.7-3.3 3.1-5.3 4.1-2 1-4.2 1.6-6.5 1.8-2.3 0.2-4.6 0-6.8-0.6-2.2-0.7-4.2-1.7-5.9-3.1-1.8-1.4-3.2-3.1-4.3-5.1-1-1.9-1.7-4-1.9-6.2-0.2-2.2 0.1-4.4 0.8-6.5 0.7-2.1 1.8-4 3.3-5.7 1.4-1.7 3.2-3.1 5.3-4.1 2-1 4.2-1.7 6.5-1.9 2.3-0.2 4.6 0.1 6.8 0.7 2.2 0.6 4.2 1.7 5.9 3.1 1.8 1.4 3.2 3.1 4.3 5 1 2 1.7 4.1 1.9 6.3zm-18.7-13.2c-1.5 0.1-3 0.6-4.4 1.5-1.4 0.8-2.6 2-3.5 3.5-1 1.4-1.8 3.1-2.2 4.9-0.5 1.9-0.6 3.8-0.5 5.7 0.2 2 0.6 3.9 1.4 5.6 0.7 1.7 1.7 3.3 2.9 4.6 1.2 1.3 2.6 2.2 4 2.9 1.5 0.6 3.1 0.9 4.6 0.7 1.6-0.1 3.1-0.6 4.4-1.4 1.4-0.9 2.6-2.1 3.6-3.5 1-1.5 1.7-3.2 2.2-5 0.4-1.8 0.6-3.8 0.4-5.7-0.1-1.9-0.6-3.8-1.3-5.6-0.8-1.7-1.8-3.3-3-4.5-1.1-1.3-2.5-2.3-4-2.9-1.5-0.7-3-0.9-4.6-0.8z"/>
	<path class="s1" d="m523.1 441q0.1 0 0.2-0.1 0.1-0.1 0.1-0.1 0-0.1 0-0.2-0.1-0.1-0.1-0.1c-5.7-4.3-3.6-13.4 3.7-14.5q4.7-0.7 7.8 1.3c4.3 2.7 3.5 8.5-0.5 10.8q-3 1.7-4.6 2.8-0.1 0.1-0.1 0.2-0.1 0.1-0.1 0.2 0 0.2 0 0.3 0.1 0.1 0.2 0.2c2.8 2.7 5.2 6 8.7 7.7q0.2 0.1 0.4 0.1 0.1 0 0.3 0 0.2-0.1 0.3-0.2 0.2-0.1 0.3-0.2 1.3-2.1 1.6-5.3 0-0.1 0-0.3 0-0.1 0-0.2-0.1-0.1-0.1-0.2-0.1-0.2-0.2-0.3-0.5-0.5-1.1-0.6-0.4-0.1-0.7-0.4-0.2-0.2-0.2-0.6 0-0.4 0.3-0.7 0.2-0.3 0.6-0.4 4.3-0.7 8.5-0.3 0.1 0 0.3 0.1 0.2 0.1 0.3 0.3 0 0.1 0.1 0.3 0 0.2-0.1 0.4l-0.7 1.6q-0.1 0.2-0.2 0.4-0.1 0.1-0.3 0.2-0.1 0.1-0.3 0.2-0.2 0-0.4 0h-1q-0.1 0-0.2 0.1-0.2 0-0.3 0.1-0.1 0-0.2 0.1-0.1 0.1-0.2 0.3l-3.8 6.5q0 0.2-0.1 0.3 0 0.1 0 0.3 0 0.1 0 0.3 0.1 0.1 0.1 0.2 2.6 4.6 7.2 5 0.2 0 0.3 0.1 0.1 0.1 0.1 0.3 0.1 0.1 0 0.3-0.1 0.1-0.3 0.2c-3.4 1.5-7.4 1.4-10.1-1.4q-0.5-0.4-1.1-1-0.1-0.1-0.2-0.2-0.1 0-0.3 0-0.1 0-0.2 0-0.1 0-0.3 0.1c-4.5 2.6-8.1 4.7-13.5 3.5-7.3-1.5-10.2-9.6-4.6-15q2.2-2.2 4.7-2.5zm6.5-13.3q-0.9-0.1-1.7 0.2-0.9 0.3-1.6 1.1-0.7 0.7-1.2 1.7-0.4 1-0.6 2.1-0.1 1.1 0.1 2.2 0.2 1.1 0.8 1.9 0.5 0.9 1.2 1.4 0.8 0.5 1.7 0.6 0.9 0.1 1.7-0.2 0.9-0.3 1.6-1 0.7-0.8 1.2-1.8 0.4-1 0.5-2.1 0.2-1.1 0-2.2-0.3-1-0.8-1.9-0.5-0.9-1.3-1.4-0.7-0.5-1.6-0.6zm6 24.5c-3.9-1.2-7.1-5.5-10.2-9.2q-0.1-0.1-0.3-0.2-0.1-0.1-0.3-0.2-0.2 0-0.4 0-0.2 0-0.4 0.1c-5.5 2.7-4.4 10.8 1.2 12.5q5.9 2 10.6-2.5 0 0 0-0.1 0.1-0.1 0-0.2 0 0 0-0.1-0.1-0.1-0.2-0.1z"/>
	<path class="s1" d="m641.5 449.6q0-0.1 0.1-0.3 0.2-0.1 0.3-0.1 0.2 0 0.4 0.1 0.1 0.1 0.2 0.3 1.7 6.2 8 7.3c3.9 0.6 8-2.1 7.5-6.3-0.5-5.3-9.7-6.5-13.1-9.6-3.9-3.5-3.9-10.4 0.6-13.3 4.7-3 8.5-1.9 15.1-0.9q0.2 0 0.3 0 0.1 0.1 0.2 0.2 0.1 0.1 0.1 0.2 0.1 0.1 0.1 0.3 0.3 4.3-0.2 7.3-0.1 0.3-0.3 0.5-0.2 0.1-0.5 0.1-0.2 0-0.4-0.2-0.2-0.1-0.3-0.4-0.6-5.1-4.9-6.5c-4.4-1.4-8.4 0.4-8.1 5.5q0.1 0.5 0.2 1 0.2 0.4 0.4 0.8 0.3 0.4 0.6 0.8 0.4 0.3 0.8 0.5 6.6 3.5 7.5 4c4.7 2.5 7.4 5 6.6 10.3-0.8 5.9-7.4 8.2-12.7 7.6q-6.7-0.8-7.3-0.8-0.2 0-0.3 0-0.1-0.1-0.2-0.2-0.1-0.1-0.2-0.2 0-0.1 0-0.2-1-4.6-0.5-7.8z"/>
	<path class="s1" d="m721.5 444.3c-2.1 1.3-2.6 1.9-2.6 4.3q-0.1 2.3-0.2 6.4 0 0.3-0.1 0.5-0.1 0.3-0.2 0.5-0.2 0.2-0.4 0.3-0.2 0.1-0.4 0.2c-5 1.6-9.4 3.3-15.4 2q-9.7-2-12.9-10.3c-2.8-7.3 0.1-15.5 6.4-19.6 5.9-3.9 14.7-3.5 21.2-1q0.3 0.2 0.6 0.4 0.2 0.2 0.4 0.5 0.2 0.3 0.3 0.6 0.1 0.3 0.2 0.7v5.3q-0.1 0.2-0.2 0.4-0.2 0.2-0.4 0.3-0.3 0.1-0.5 0-0.2-0.1-0.4-0.4l-2.2-3.9q0 0 0-0.1-0.1 0-0.1 0 0 0 0 0 0-0.1 0-0.1-3.7-4-9.4-3.6c-13.4 0.9-15 21.9-4.7 27.2q5.3 2.7 11.1 1.1 0.4-0.2 0.7-0.4 0.3-0.2 0.6-0.5 0.2-0.3 0.3-0.7 0.1-0.3 0.2-0.7v-6.7q-0.1-0.2-0.1-0.4-0.1-0.2-0.2-0.4-0.1-0.1-0.3-0.2-0.2-0.1-0.4-0.2-2.3-0.4-3.1-1.1-0.2-0.2-0.3-0.4 0-0.2 0.1-0.4 0.1-0.2 0.2-0.4 0.2-0.1 0.4-0.1h11.5q0.2 0 0.3 0.1 0.2 0.1 0.2 0.3 0 0.1 0 0.3-0.1 0.1-0.2 0.2z"/>
	<path class="s1" d="m107.7 451.1v1.9q0 0.3-0.1 0.6-0.1 0.4-0.2 0.6-0.2 0.3-0.4 0.6-0.2 0.2-0.5 0.4-6.1 4.3-12.9 3.6-9.3-1-13.7-7.6c-3.5-5.1-3.5-12-0.3-17.4 5.2-9 17.3-9.5 26.3-6.2q0.2 0.1 0.4 0.2 0.1 0.1 0.2 0.3 0.1 0.1 0.2 0.3 0 0.2 0 0.3v6q0 0.3-0.2 0.6-0.2 0.2-0.5 0.3-0.3 0-0.6-0.1-0.2-0.2-0.4-0.5-3.8-9.5-14.4-6.3c-8.1 2.5-8.8 13.3-6.5 19.8q1.9 5.2 8 7.2 8.1 2.8 14.5-5 0.1-0.1 0.3-0.2 0.2 0 0.4 0 0.2 0.1 0.3 0.3 0.1 0.1 0.1 0.3z"/>
	<path class="s1" d="m225.7 433.9q-0.1 0.1-0.2 0.1-0.1 0-0.2-0.1-0.1 0-0.2-0.1-0.1-0.1-0.1-0.2v-6.4q0-0.2 0.1-0.4 0.1-0.1 0.2-0.2 0.1-0.2 0.3-0.2 0.1-0.1 0.3-0.1h27.4q0.1 0 0.3 0.1 0.1 0 0.2 0.1 0.1 0.1 0.2 0.3 0 0.1 0 0.3v6.4q0 0.3-0.2 0.5-0.2 0.3-0.5 0.3-0.4 0-0.6-0.2-0.3-0.1-0.4-0.5c-0.9-4.7-5.4-5-9.2-4.7q-0.2 0-0.4 0.1-0.2 0-0.3 0.2-0.2 0.2-0.2 0.4-0.1 0.2-0.1 0.4v24.4q0 0.1 0 0.3 0.1 0.1 0.1 0.2 0.1 0.2 0.2 0.3 0 0.1 0.2 0.2 1.3 1.2 3.2 1.6 0.2 0 0.4 0.2 0.1 0.2 0.1 0.4 0 0.3-0.2 0.4-0.2 0.2-0.4 0.2h-12.5q-0.2 0-0.3-0.1-0.1-0.1-0.2-0.3 0-0.2 0-0.4 0.1-0.1 0.3-0.2l2.8-1.7q0.1 0 0.2-0.1 0.1-0.1 0.2-0.1 0.1-0.1 0.1-0.2 0.1-0.1 0.2-0.2 0.6-0.9 0.6-2.9 0.1-12.1 0-21.9 0-0.2-0.1-0.5-0.1-0.3-0.3-0.5-0.2-0.2-0.5-0.3-0.2-0.1-0.5-0.2c-3.5-0.3-7.2-0.2-8.6 3.2q-0.7 1.5-1.4 2.1z"/>
	<path class="s1" d="m365.4 426.1q13.8 0.8 28.3 0.1 0.1 0 0.2 0 0.1 0.1 0.2 0.1 0 0.1 0.1 0.2 0 0.1 0 0.1v6.9q0 0.3-0.2 0.6-0.2 0.2-0.5 0.2-0.3 0.1-0.5 0-0.3-0.2-0.4-0.5l-1.6-4.1q-0.1-0.1-0.2-0.2 0-0.1-0.1-0.2-0.1-0.1-0.3-0.1-0.1-0.1-0.2-0.1-3.8-0.8-7.8-0.2-0.1 0-0.3 0.1-0.1 0-0.2 0.1-0.1 0.1-0.1 0.3-0.1 0.1-0.1 0.2v24.3q0 0.3 0.1 0.7 0.1 0.3 0.3 0.6 0.2 0.3 0.5 0.5 0.2 0.2 0.5 0.3l2.5 1q0.2 0.1 0.3 0.3 0.1 0.2 0 0.4 0 0.2-0.2 0.4-0.2 0.1-0.4 0.1h-12.3q-0.2 0-0.3-0.1-0.1-0.1-0.2-0.3 0-0.1 0-0.3 0.1-0.2 0.2-0.3 1.2-0.7 2.4-0.9 0.3-0.1 0.7-0.3 0.3-0.2 0.6-0.5 0.2-0.3 0.3-0.6 0.2-0.4 0.2-0.8v-24.2q0-0.2-0.1-0.4-0.1-0.2-0.2-0.4-0.2-0.1-0.3-0.2-0.2-0.1-0.4-0.1c-4.2-0.3-8.2-0.2-9.8 4.5q-0.2 0.5-0.8 0.8-0.1 0.1-0.3 0.1-0.2 0-0.3-0.1-0.2-0.1-0.3-0.3-0.1-0.1 0-0.3l0.3-6.7q0-0.2 0-0.3 0.1-0.1 0.2-0.2 0.1-0.1 0.2-0.1 0.1-0.1 0.3-0.1z"/>
	<path class="s1" d="m164.4 456.9q0.2 0.1 0.3 0.3 0.2 0.2 0.1 0.4 0 0.2-0.2 0.4-0.1 0.1-0.4 0.1h-9.3q-0.2 0-0.3 0-0.1-0.1-0.1-0.2-0.1-0.1 0-0.2 0-0.2 0.1-0.3l2.7-2.3q0.3-0.2 0.4-0.4 0.2-0.3 0.4-0.6 0.1-0.2 0.2-0.5 0-0.3 0.1-0.6 0.3-5.7 0.2-19 0-2.5-0.9-4.4-0.1-0.1-0.1-0.2-0.1 0-0.2-0.1 0-0.1-0.1-0.2-0.1 0-0.2-0.1l-2.5-1.4q-0.2-0.1-0.2-0.3-0.1-0.2-0.1-0.4 0-0.1 0.2-0.3 0.1-0.1 0.3-0.1 3.7-0.7 6.5 0 0.2 0 0.3 0 0.1 0.1 0.3 0.2 0.1 0.1 0.2 0.2 0.1 0.1 0.2 0.2l20.3 22.8q0.1 0.1 0.3 0.2 0.2 0 0.3 0 0.2-0.1 0.3-0.3 0.1-0.1 0.1-0.3l-0.1-17.9q0-0.4-0.1-0.8-0.1-0.5-0.3-0.8-0.3-0.4-0.6-0.7-0.3-0.3-0.6-0.5-0.2-0.1-2.1-1.1-0.2-0.1-0.3-0.2-0.1-0.1-0.1-0.2-0.1-0.2 0-0.3 0-0.2 0-0.3 0.1-0.1 0.3-0.2 0.1-0.1 0.2-0.1 0 0 0.1-0.1 0.1 0 0.1 0 0.1 0 0.2 0h9.1q0.2 0 0.5 0.2 0.2 0.2 0.2 0.5 0.1 0.3-0.1 0.5-0.1 0.3-0.4 0.4c-3.7 1-3.3 4.1-3.3 7.4q-0.1 7-0.3 22.7 0 0.1-0.1 0.3 0 0.1-0.2 0.2-0.1 0.1-0.2 0.2-0.2 0.1-0.3 0.1c-1.8 0-3.2-2.3-4.7-4.2q-1.3-1.8-2.9-3.3-8.9-9.3-15.9-17.8 0-0.1-0.2-0.1-0.1 0-0.2 0-0.1 0.1-0.2 0.2 0 0.1 0 0.2 0 5.1-0.1 15.6c-0.1 4-0.9 6.5 3.4 7.5z"/>
	<path class="s1" d="m288.8 457.2q0 0.1 0 0.3 0 0.1-0.1 0.3-0.1 0.1-0.2 0.2-0.1 0.1-0.3 0.1-6.8 1.5-10.2-3.8 0-0.1-4.8-7.2c-1.6-2.3-2.8-3.1-5.3-3.5q-0.1 0-0.2 0-0.1 0-0.2 0.1-0.1 0.1-0.1 0.1 0 0.1 0 0.2v10q0 0.4 0 0.7 0.1 0.3 0.3 0.5 0.2 0.3 0.5 0.5 0.2 0.2 0.5 0.3 1.4 0.4 2.2 1.2 0.2 0.1 0.2 0.3 0.1 0.1 0 0.3-0.1 0.1-0.2 0.2-0.1 0.1-0.3 0.1h-11.5q-0.1 0-0.2 0-0.1 0-0.2-0.1 0-0.1-0.1-0.1 0-0.1 0-0.2v-0.4q0-0.2 0-0.3 0.1-0.1 0.2-0.2 0.1-0.1 0.2-0.1 0.1-0.1 0.2-0.1 3.1 0.1 3.1-3.5 0.2-9.1-0.1-22.7 0-0.2-0.1-0.5-0.1-0.3-0.3-0.5-0.1-0.3-0.3-0.5-0.3-0.1-0.5-0.2l-1.9-0.8q-0.1-0.1-0.2-0.3-0.1-0.2-0.1-0.4 0-0.2 0.2-0.3 0.1-0.2 0.3-0.2 7.8-0.6 15-0.2 7.8 0.4 9 8c0.6 4-3.2 7.3-6.4 8.8q-0.1 0.1-0.2 0.2 0 0.1-0.1 0.2 0 0.1 0 0.2 0 0.2 0.1 0.3 2.4 3.5 5.8 8.3c1.6 2.2 3.4 3.4 5.7 4.3q0.5 0.2 0.5 0.4zm-21.2-28l-0.1 12.1q-0.1 0.1 0 0.3 0.1 0.1 0.2 0.2 0.1 0.1 0.2 0.2 0.2 0.1 0.3 0.1h2.7q1.3 0 2.6-0.5 1.2-0.4 2.2-1.4 1-0.9 1.5-2.1 0.5-1.2 0.5-2.5v-0.4q0.1-1.3-0.4-2.5-0.5-1.3-1.5-2.2-0.9-0.9-2.1-1.5-1.3-0.5-2.6-0.5h-2.7q-0.1-0.1-0.3 0-0.1 0.1-0.2 0.2-0.2 0.1-0.2 0.2-0.1 0.2-0.1 0.3z"/>
	<path class="s1" d="m303.1 426.6q0.2 0 0.3 0.1 0.1 0.1 0.2 0.3 0 0.1-0.1 0.3 0 0.1-0.2 0.2c-2.6 1.3-3.4 2.5-3.5 5.5q0 6.2 0 13.5c0 7.5 6.2 10.7 12.8 9.1q5.8-1.5 5.8-9.1 0.1-7.8-0.1-15.7 0-0.3-0.1-0.6-0.1-0.3-0.3-0.6-0.1-0.3-0.4-0.5-0.3-0.2-0.6-0.3l-2.1-0.9q-0.3-0.1-0.5-0.4-0.1-0.3-0.1-0.6 0.1-0.4 0.4-0.6 0.2-0.2 0.6-0.2l9.1 0.4q0.2 0.1 0.3 0.2 0.2 0.1 0.2 0.3 0 0.2-0.1 0.4 0 0.1-0.2 0.2-1.8 0.8-2.8 2.3-0.1 0.1-0.1 0.2-0.1 0.2-0.2 0.3 0 0.2 0 0.3 0 0.2-0.1 0.3-0.1 6-0.1 11.5c0 8.4-1.2 14.3-9.8 16.1-8 1.6-16-1.5-16.4-10.6q-0.2-4.7-0.3-17.1 0-0.3-0.1-0.6-0.1-0.3-0.3-0.6-0.2-0.3-0.5-0.6-0.3-0.2-0.7-0.3-0.8-0.4-1.4-1.3-0.1-0.2-0.1-0.4 0-0.3 0.1-0.5 0.2-0.2 0.4-0.3 0.2-0.1 0.4-0.1z"/>
	<path class="s1" d="m405.1 426.3q4.6 0.1 5.7 0.2 0.2 0.1 0.3 0.2 0.1 0.1 0.1 0.2 0 0.2 0 0.3-0.1 0.2-0.2 0.2l-2 1.2q-0.4 0.2-0.7 0.5-0.2 0.3-0.4 0.6-0.3 0.4-0.4 0.8-0.1 0.4-0.1 0.8 0 1.6 0 11-0.1 9.4-0.1 11 0 0.4 0.1 0.8 0.1 0.4 0.3 0.8 0.2 0.3 0.5 0.6 0.3 0.3 0.7 0.5l1.9 1.2q0.2 0.1 0.2 0.2 0.1 0.1 0.1 0.3-0.1 0.1-0.2 0.2-0.1 0.1-0.2 0.2-1.2 0.1-5.8 0.1-4.5 0-5.7-0.2-0.1 0-0.2-0.1-0.2-0.1-0.2-0.3 0-0.1 0.1-0.3 0-0.1 0.1-0.2l2-1.1q0.4-0.2 0.7-0.5 0.3-0.3 0.5-0.7 0.2-0.3 0.3-0.7 0.1-0.4 0.1-0.8 0-1.7 0-11 0.1-9.4 0.1-11 0-0.5-0.1-0.8-0.1-0.4-0.3-0.8-0.2-0.4-0.5-0.7-0.3-0.3-0.6-0.5l-2-1.1q-0.1-0.1-0.2-0.2 0-0.2 0-0.3 0-0.2 0.1-0.3 0.1-0.1 0.3-0.1 1.1-0.2 5.7-0.2z"/>
	<path class="s1" d="m468.3 456.8q0.3 0.1 0.4 0.3 0.1 0.2 0.1 0.4 0 0.3-0.2 0.4-0.2 0.2-0.4 0.1l-9.3 0.1q-0.2 0-0.3-0.1-0.1-0.1-0.1-0.2-0.1-0.1 0-0.2 0-0.2 0.1-0.2l2.7-2.4q0.2-0.2 0.4-0.4 0.2-0.2 0.3-0.5 0.2-0.3 0.2-0.6 0.1-0.3 0.1-0.6 0.3-5.6 0.3-18.8 0-2.5-0.9-4.4-0.1-0.1-0.2-0.1 0-0.1-0.1-0.2-0.1-0.1-0.1-0.2-0.1 0-0.2-0.1l-2.5-1.4q-0.2-0.1-0.3-0.3 0-0.1 0-0.3 0-0.2 0.2-0.3 0.1-0.2 0.3-0.2 3.6-0.6 6.4 0 0.2 0 0.3 0.1 0.2 0 0.3 0.1 0.1 0.1 0.3 0.2 0.1 0.1 0.2 0.2l20.1 22.6q0.1 0.2 0.3 0.2 0.1 0.1 0.3 0 0.2-0.1 0.3-0.2 0.1-0.2 0.1-0.3l-0.1-17.8q0-0.4-0.1-0.9-0.2-0.4-0.4-0.7-0.2-0.4-0.5-0.7-0.3-0.3-0.7-0.5-0.1-0.1-2-1.1-0.2 0-0.3-0.2-0.1-0.1-0.1-0.2-0.1-0.1 0-0.3 0-0.1 0.1-0.3 0-0.1 0.2-0.2 0.1-0.1 0.2-0.1 0 0 0.1 0 0.1-0.1 0.1-0.1 0.1 0 0.2 0h9q0.3 0 0.5 0.2 0.2 0.2 0.3 0.5 0 0.3-0.1 0.5-0.2 0.3-0.5 0.4c-3.6 1-3.2 4.1-3.3 7.3q-0.1 7-0.2 22.6 0 0.1-0.1 0.3-0.1 0.1-0.2 0.2-0.1 0.1-0.2 0.2-0.2 0.1-0.3 0.1c-1.8 0-3.2-2.2-4.7-4.2q-1.3-1.7-2.8-3.3-8.9-9.2-15.8-17.6-0.1-0.1-0.2-0.1-0.1 0-0.2 0-0.1 0.1-0.2 0.2-0.1 0-0.1 0.2 0 5-0.1 15.5c0 4-0.8 6.4 3.4 7.4z"/>
	<path class="s1" d="m568.8 457.5q0.7-0.8 1.8-1.1 0.5-0.2 0.9-0.5 0.4-0.3 0.7-0.6 0.3-0.4 0.5-0.8 0.2-0.4 0.2-0.9 0.1-11 0.1-21.5c0-2.7-0.6-3.3-3.1-4.1q-0.1 0-0.2 0 0-0.1-0.1-0.1 0-0.1-0.1-0.1 0-0.1-0.1-0.2-0.2-0.4-0.2-0.7 0.1-0.1 0.1-0.1 0.1-0.1 0.1-0.2 0.1 0 0.2-0.1 0.1 0 0.2 0 15.7-0.5 18.9 0.1 14.5 2.6 13.8 17.4c-0.4 8.4-8.3 14.1-16.8 14.2q-7.4 0.1-16.6-0.1-0.1 0-0.2-0.1-0.1 0-0.1-0.1-0.1-0.1 0-0.2 0-0.1 0-0.2zm9-26.6l0.1 23.1q0 0.4 0.1 0.9 0.2 0.4 0.5 0.7 0.4 0.3 0.8 0.5 0.4 0.1 0.8 0.1h4.4c1.6 0 3.3-0.3 4.8-0.9 1.5-0.7 2.8-1.6 4-2.7 1.1-1.2 2.1-2.5 2.7-4 0.6-1.5 0.9-3.1 0.9-4.7v-3.1c0-1.6-0.4-3.2-1-4.7-0.6-1.5-1.6-2.8-2.7-3.9-1.2-1.2-2.6-2.1-4.1-2.7-1.5-0.6-3.1-0.9-4.7-0.9h-4.4q-0.4 0-0.9 0.2-0.4 0.2-0.7 0.5-0.3 0.3-0.5 0.7-0.2 0.5-0.1 0.9z"/>
	<path class="s1" d="m629.3 437.1q0.1-0.1 0.3-0.2 0.1 0 0.3 0.1 0.2 0 0.2 0.2 0.1 0.1 0.1 0.3l-0.1 8.7q0 0.3-0.2 0.5-0.2 0.2-0.5 0.3-0.2 0-0.5-0.1-0.2-0.2-0.4-0.4l-0.8-2.2q-0.2-0.3-0.3-0.5-0.2-0.2-0.5-0.4-0.2-0.2-0.5-0.3-0.3-0.1-0.5-0.1l-7.2-0.3q-0.1 0-0.2 0-0.1 0.1-0.2 0.2-0.1 0-0.1 0.1-0.1 0.1-0.1 0.3v10.6q0 0.3 0.1 0.7 0.2 0.3 0.4 0.5 0.2 0.3 0.5 0.4 0.3 0.2 0.6 0.3 4.1 0.6 8.5-0.1c3.4-0.5 4.4-2.9 6.3-5.4q0.1-0.2 0.3-0.2 0.1-0.1 0.3 0 0.1 0 0.2 0.2 0.1 0.1 0.1 0.3-0.1 3.6-1.3 6.6-0.1 0.3-0.3 0.4-0.1 0.2-0.3 0.4-0.2 0.1-0.4 0.2-0.2 0-0.5 0-1.7 0.1-23.2-0.1-0.5 0-0.5-0.4-0.1-0.2 0.1-0.5c0.3-0.4 1.2-0.7 2.6-1.3q0.3-0.2 0.6-0.4 0.2-0.2 0.4-0.5 0.2-0.2 0.3-0.5 0.1-0.3 0.1-0.7 0.6-10.9 0.2-21.8-0.1-3.6-3.5-4.3-0.2 0-0.3-0.2-0.1-0.1-0.2-0.3 0-0.2 0.1-0.3 0-0.2 0.2-0.3 0.3-0.2 0.9-0.2 14.2-0.1 21.1-0.2 0.3 0 0.5 0.1 0.3 0.1 0.5 0.3 0.1 0.2 0.2 0.4 0.1 0.3 0.2 0.5v5.7q-0.1 0.3-0.3 0.5-0.2 0.3-0.5 0.3-0.3 0.1-0.6-0.1-0.2-0.1-0.4-0.4l-1.1-2.7q-0.1-0.4-0.4-0.7-0.3-0.4-0.7-0.7-0.3-0.2-0.8-0.4-0.4-0.1-0.8-0.1l-8.3-0.4q-0.1 0-0.2 0-0.2 0.1-0.2 0.1-0.1 0.1-0.2 0.2 0 0.1 0 0.2l-0.5 10.7q0 0.1 0.1 0.3 0 0.1 0.1 0.3 0.1 0.1 0.3 0.1 0.1 0.1 0.3 0.1h7.5q0.2 0 0.5-0.1 0.3-0.1 0.5-0.2 0.2-0.1 0.4-0.4 0.2-0.2 0.3-0.4 1-2 1.4-2.3z"/>
	<path class="s1" d="m673.4 442.3q0-9.3 0.1-11 0-0.4-0.2-0.8-0.1-0.4-0.3-0.7-0.2-0.4-0.4-0.7-0.3-0.3-0.7-0.5l-1.9-1.1q-0.2-0.1-0.2-0.2-0.1-0.2-0.1-0.3 0.1-0.2 0.2-0.3 0.1-0.1 0.2-0.1 1.2-0.2 5.7-0.2 4.6 0.1 5.7 0.2 0.2 0.1 0.3 0.2 0.1 0.1 0.1 0.2 0 0.2 0 0.3-0.1 0.2-0.2 0.2l-2 1.2q-0.3 0.2-0.6 0.5-0.3 0.3-0.5 0.6-0.2 0.4-0.3 0.8-0.1 0.4-0.1 0.8-0.1 1.6-0.1 10.9 0 9.3-0.1 11 0 0.4 0.2 0.8 0.1 0.4 0.3 0.7 0.2 0.4 0.4 0.7 0.3 0.3 0.7 0.5l1.9 1.1q0.2 0.1 0.2 0.3 0.1 0.1 0.1 0.2 0 0.2-0.2 0.3-0.1 0.1-0.2 0.1-1.1 0.2-5.7 0.2-4.6 0-5.7-0.2-0.2 0-0.3-0.2-0.1-0.1-0.1-0.2 0-0.2 0-0.3 0.1-0.1 0.2-0.2l2-1.1q0.4-0.2 0.6-0.5 0.3-0.3 0.5-0.7 0.2-0.3 0.4-0.7 0.1-0.4 0.1-0.8 0-1.7 0-11z"/>
	<path class="s1" d="m737 456.8q0.1 0 0.2 0 0.1 0.1 0.2 0.2 0.1 0.1 0.1 0.2 0.1 0.1 0 0.2v0.3q0 0.1 0 0.2 0 0.1-0.1 0.1-0.1 0.1-0.2 0.1-0.1 0.1-0.2 0.1h-9.6q-0.3 0-0.4-0.2-0.2-0.1-0.3-0.4 0-0.2 0.1-0.4 0.1-0.2 0.3-0.3l2.5-1.1q0.3-0.1 0.6-0.3 0.2-0.2 0.4-0.4 0.2-0.3 0.3-0.6 0.1-0.3 0.1-0.6v-22.4q0-0.4-0.1-0.7-0.1-0.3-0.3-0.6-0.1-0.3-0.4-0.5-0.2-0.3-0.5-0.4l-2.5-1.5q-0.2-0.1-0.3-0.3-0.1-0.3-0.1-0.6 0.1-0.2 0.3-0.4 0.2-0.1 0.5-0.1h5.1q0.4 0 0.8 0.1 0.4 0 0.8 0.2 0.4 0.2 0.7 0.4 0.4 0.3 0.6 0.6c3 3.4 5.4 7 8.9 10.6q0.7 0.8 10.5 11.3 0.2 0.1 0.3 0.1 0.2 0.1 0.3 0 0.1 0 0.2-0.2 0.1-0.1 0.1-0.2 0.1-6.2 0.2-13.4c0.1-4.2 0.4-7.1-4-8.1q-0.2-0.1-0.3-0.2-0.2-0.2-0.2-0.4 0-0.2 0.1-0.4 0.1-0.2 0.3-0.3c1.6-0.9 6.7-0.3 10.1 0.1q0.3 0 0.4 0.2 0.2 0.1 0.2 0.4 0 0.2-0.1 0.4-0.2 0.2-0.4 0.2-3.6 0.8-3.6 4.4-0.4 23.6-0.3 25.3 0 0.1-0.3 0.7-0.1 0.3-0.3 0.5-0.3 0.2-0.6 0.2-0.3 0.1-0.6 0-0.3-0.1-0.5-0.4l-21.6-25q-0.1-0.1-0.3-0.2-0.1 0-0.3 0.1-0.2 0-0.2 0.1-0.1 0.2-0.1 0.4-0.1 13.4-0.1 17.9-0.1 4.5 3.6 5z"/>
</svg>